<?xml version="1.0" standalone="no"?>
<!DOCTYPE svg PUBLIC "-//W3C//DTD SVG 1.1//EN" "http://www.w3.org/Graphics/SVG/1.1/DTD/svg11.dtd">
<svg width="602" height="301" viewBox="-51 -251 602 301" xmlns="http://www.w3.org/2000/svg" version="1.1">
<title>OpenSCAD Model</title>
<path d="
M 504.5,-177.462 L 505.953,-177.784 L 507.372,-178.231 L 521.603,-153.583 L 529.397,-158.083 L 515.166,-182.731
 L 516.263,-183.737 L 517.269,-184.834 L 541.917,-170.603 L 546.417,-178.397 L 521.769,-192.628 L 522.216,-194.047
 L 522.538,-195.5 L 551,-195.5 L 551,-204.5 L 522.538,-204.5 L 522.216,-205.953 L 521.769,-207.372
 L 546.417,-221.603 L 541.917,-229.397 L 517.269,-215.166 L 516.263,-216.263 L 515.166,-217.269 L 529.397,-241.917
 L 521.603,-246.417 L 507.372,-221.769 L 505.953,-222.216 L 504.5,-222.538 L 504.5,-251 L 495.5,-251
 L 495.5,-222.538 L 494.047,-222.216 L 492.628,-221.769 L 478.397,-246.417 L 470.603,-241.917 L 484.834,-217.269
 L 483.737,-216.263 L 482.731,-215.166 L 458.083,-229.397 L 453.583,-221.603 L 478.231,-207.372 L 477.784,-205.953
 L 477.462,-204.5 L 449,-204.5 L 449,-195.5 L 477.462,-195.5 L 477.784,-194.047 L 478.231,-192.628
 L 453.583,-178.397 L 458.083,-170.603 L 482.731,-184.834 L 483.737,-183.737 L 484.834,-182.731 L 470.603,-158.083
 L 478.397,-153.583 L 492.628,-178.231 L 494.047,-177.784 L 495.5,-177.462 L 495.5,-149 L 504.5,-149
 z
M 499.099,-224.566 L 499.099,-225.434 L 499.777,-225.975 L 500.623,-225.782 L 501,-225 L 500.623,-224.218
 L 499.777,-224.025 z
M 499.099,-215.566 L 499.099,-216.434 L 499.777,-216.975 L 500.623,-216.782 L 501,-216 L 500.623,-215.218
 L 499.777,-215.025 z
M 499.025,-195.096 L 498.087,-195.381 L 497.222,-195.843 L 496.464,-196.464 L 495.843,-197.222 L 495.381,-198.087
 L 495.096,-199.025 L 495,-200 L 495.096,-200.975 L 495.381,-201.913 L 495.843,-202.778 L 496.464,-203.536
 L 497.222,-204.157 L 498.087,-204.619 L 499.025,-204.904 L 500,-205 L 500.975,-204.904 L 501.913,-204.619
 L 502.778,-204.157 L 503.536,-203.536 L 504.157,-202.778 L 504.619,-201.913 L 504.904,-200.975 L 505,-200
 L 504.904,-199.025 L 504.619,-198.087 L 504.157,-197.222 L 503.536,-196.464 L 502.778,-195.843 L 501.913,-195.381
 L 500.975,-195.096 L 500,-195 z
M 499.099,-183.566 L 499.099,-184.434 L 499.777,-184.975 L 500.623,-184.782 L 501,-184 L 500.623,-183.218
 L 499.777,-183.025 z
M 499.099,-174.566 L 499.099,-175.434 L 499.777,-175.975 L 500.623,-175.782 L 501,-175 L 500.623,-174.218
 L 499.777,-174.025 z
M 404.5,-177.462 L 405.953,-177.784 L 407.372,-178.231 L 416.603,-162.243 L 424.397,-166.743 L 415.166,-182.731
 L 416.263,-183.737 L 417.269,-184.834 L 433.257,-175.603 L 437.757,-183.397 L 421.769,-192.628 L 422.216,-194.047
 L 422.538,-195.5 L 441,-195.5 L 441,-204.5 L 422.538,-204.5 L 422.216,-205.953 L 421.769,-207.372
 L 437.757,-216.603 L 433.257,-224.397 L 417.269,-215.166 L 416.263,-216.263 L 415.166,-217.269 L 424.397,-233.257
 L 416.603,-237.757 L 407.372,-221.769 L 405.953,-222.216 L 404.5,-222.538 L 404.5,-241 L 395.5,-241
 L 395.5,-222.538 L 394.047,-222.216 L 392.628,-221.769 L 383.397,-237.757 L 375.603,-233.257 L 384.834,-217.269
 L 383.737,-216.263 L 382.731,-215.166 L 366.743,-224.397 L 362.243,-216.603 L 378.231,-207.372 L 377.784,-205.953
 L 377.462,-204.5 L 359,-204.5 L 359,-195.5 L 377.462,-195.5 L 377.784,-194.047 L 378.231,-192.628
 L 362.243,-183.397 L 366.743,-175.603 L 382.731,-184.834 L 383.737,-183.737 L 384.834,-182.731 L 375.603,-166.743
 L 383.397,-162.243 L 392.628,-178.231 L 394.047,-177.784 L 395.5,-177.462 L 395.5,-159 L 404.5,-159
 z
M 399.099,-224.566 L 399.099,-225.434 L 399.777,-225.975 L 400.623,-225.782 L 401,-225 L 400.623,-224.218
 L 399.777,-224.025 z
M 399.099,-215.566 L 399.099,-216.434 L 399.777,-216.975 L 400.623,-216.782 L 401,-216 L 400.623,-215.218
 L 399.777,-215.025 z
M 399.025,-195.096 L 398.087,-195.381 L 397.222,-195.843 L 396.464,-196.464 L 395.843,-197.222 L 395.381,-198.087
 L 395.096,-199.025 L 395,-200 L 395.096,-200.975 L 395.381,-201.913 L 395.843,-202.778 L 396.464,-203.536
 L 397.222,-204.157 L 398.087,-204.619 L 399.025,-204.904 L 400,-205 L 400.975,-204.904 L 401.913,-204.619
 L 402.778,-204.157 L 403.536,-203.536 L 404.157,-202.778 L 404.619,-201.913 L 404.904,-200.975 L 405,-200
 L 404.904,-199.025 L 404.619,-198.087 L 404.157,-197.222 L 403.536,-196.464 L 402.778,-195.843 L 401.913,-195.381
 L 400.975,-195.096 L 400,-195 z
M 399.099,-183.566 L 399.099,-184.434 L 399.777,-184.975 L 400.623,-184.782 L 401,-184 L 400.623,-183.218
 L 399.777,-183.025 z
M 399.099,-174.566 L 399.099,-175.434 L 399.777,-175.975 L 400.623,-175.782 L 401,-175 L 400.623,-174.218
 L 399.777,-174.025 z
M 304.5,-186.753 L 304.788,-186.844 L 305.917,-187.312 L 306.185,-187.451 L 322.274,-171.362 L 328.638,-177.726
 L 312.549,-193.815 L 312.688,-194.083 L 313.156,-195.212 L 313.247,-195.5 L 336,-195.5 L 336,-204.5
 L 313.247,-204.5 L 313.156,-204.788 L 312.688,-205.917 L 312.549,-206.185 L 328.638,-222.274 L 322.274,-228.638
 L 306.185,-212.549 L 305.917,-212.688 L 304.788,-213.156 L 304.5,-213.247 L 304.5,-236 L 295.5,-236
 L 295.5,-213.247 L 295.212,-213.156 L 294.083,-212.688 L 293.815,-212.549 L 277.726,-228.638 L 271.362,-222.274
 L 287.451,-206.185 L 287.312,-205.917 L 286.844,-204.788 L 286.753,-204.5 L 264,-204.5 L 264,-195.5
 L 286.753,-195.5 L 286.844,-195.212 L 287.312,-194.083 L 287.451,-193.815 L 271.362,-177.726 L 277.726,-171.362
 L 293.815,-187.451 L 294.083,-187.312 L 295.212,-186.844 L 295.5,-186.753 L 295.5,-164 L 304.5,-164
 z
M 299.099,-215.566 L 299.099,-216.434 L 299.777,-216.975 L 300.623,-216.782 L 301,-216 L 300.623,-215.218
 L 299.777,-215.025 z
M 299.099,-209.566 L 299.099,-210.434 L 299.777,-210.975 L 300.623,-210.782 L 301,-210 L 300.623,-209.218
 L 299.777,-209.025 z
M 299.025,-195.096 L 298.087,-195.381 L 297.222,-195.843 L 296.464,-196.464 L 295.843,-197.222 L 295.381,-198.087
 L 295.096,-199.025 L 295,-200 L 295.096,-200.975 L 295.381,-201.913 L 295.843,-202.778 L 296.464,-203.536
 L 297.222,-204.157 L 298.087,-204.619 L 299.025,-204.904 L 300,-205 L 300.975,-204.904 L 301.913,-204.619
 L 302.778,-204.157 L 303.536,-203.536 L 304.157,-202.778 L 304.619,-201.913 L 304.904,-200.975 L 305,-200
 L 304.904,-199.025 L 304.619,-198.087 L 304.157,-197.222 L 303.536,-196.464 L 302.778,-195.843 L 301.913,-195.381
 L 300.975,-195.096 L 300,-195 z
M 299.099,-189.566 L 299.099,-190.434 L 299.777,-190.975 L 300.623,-190.782 L 301,-190 L 300.623,-189.218
 L 299.777,-189.025 z
M 299.099,-183.566 L 299.099,-184.434 L 299.777,-184.975 L 300.623,-184.782 L 301,-184 L 300.623,-183.218
 L 299.777,-183.025 z
M 204.5,-186.753 L 204.788,-186.844 L 205.917,-187.312 L 206.185,-187.451 L 218.738,-174.898 L 225.102,-181.262
 L 212.549,-193.815 L 212.688,-194.083 L 213.156,-195.212 L 213.247,-195.5 L 231,-195.5 L 231,-204.5
 L 213.247,-204.5 L 213.156,-204.788 L 212.688,-205.917 L 212.549,-206.185 L 225.102,-218.738 L 218.738,-225.102
 L 206.185,-212.549 L 205.917,-212.688 L 204.788,-213.156 L 204.5,-213.247 L 204.5,-231 L 195.5,-231
 L 195.5,-213.247 L 195.212,-213.156 L 194.083,-212.688 L 193.815,-212.549 L 181.262,-225.102 L 174.898,-218.738
 L 187.451,-206.185 L 187.312,-205.917 L 186.844,-204.788 L 186.753,-204.5 L 169,-204.5 L 169,-195.5
 L 186.753,-195.5 L 186.844,-195.212 L 187.312,-194.083 L 187.451,-193.815 L 174.898,-181.262 L 181.262,-174.898
 L 193.815,-187.451 L 194.083,-187.312 L 195.212,-186.844 L 195.5,-186.753 L 195.5,-169 L 204.5,-169
 z
M 199.099,-215.566 L 199.099,-216.434 L 199.777,-216.975 L 200.623,-216.782 L 201,-216 L 200.623,-215.218
 L 199.777,-215.025 z
M 199.099,-209.566 L 199.099,-210.434 L 199.777,-210.975 L 200.623,-210.782 L 201,-210 L 200.623,-209.218
 L 199.777,-209.025 z
M 199.025,-195.096 L 198.087,-195.381 L 197.222,-195.843 L 196.464,-196.464 L 195.843,-197.222 L 195.381,-198.087
 L 195.096,-199.025 L 195,-200 L 195.096,-200.975 L 195.381,-201.913 L 195.843,-202.778 L 196.464,-203.536
 L 197.222,-204.157 L 198.087,-204.619 L 199.025,-204.904 L 200,-205 L 200.975,-204.904 L 201.913,-204.619
 L 202.778,-204.157 L 203.536,-203.536 L 204.157,-202.778 L 204.619,-201.913 L 204.904,-200.975 L 205,-200
 L 204.904,-199.025 L 204.619,-198.087 L 204.157,-197.222 L 203.536,-196.464 L 202.778,-195.843 L 201.913,-195.381
 L 200.975,-195.096 L 200,-195 z
M 199.099,-189.566 L 199.099,-190.434 L 199.777,-190.975 L 200.623,-190.782 L 201,-190 L 200.623,-189.218
 L 199.777,-189.025 z
M 199.099,-183.566 L 199.099,-184.434 L 199.777,-184.975 L 200.623,-184.782 L 201,-184 L 200.623,-183.218
 L 199.777,-183.025 z
M 104.5,-186.753 L 104.788,-186.844 L 105.917,-187.312 L 106.185,-187.451 L 115.203,-178.433 L 121.567,-184.797
 L 112.549,-193.815 L 112.688,-194.083 L 113.156,-195.212 L 113.247,-195.5 L 126,-195.5 L 126,-204.5
 L 113.247,-204.5 L 113.156,-204.788 L 112.688,-205.917 L 112.549,-206.185 L 121.567,-215.203 L 115.203,-221.567
 L 106.185,-212.549 L 105.917,-212.688 L 104.788,-213.156 L 104.5,-213.247 L 104.5,-226 L 95.5,-226
 L 95.5,-213.247 L 95.2117,-213.156 L 94.0833,-212.688 L 93.8152,-212.549 L 84.7972,-221.567 L 78.4332,-215.203
 L 87.4513,-206.185 L 87.3117,-205.917 L 86.8443,-204.788 L 86.7534,-204.5 L 74,-204.5 L 74,-195.5
 L 86.7534,-195.5 L 86.8443,-195.212 L 87.3117,-194.083 L 87.4513,-193.815 L 78.4332,-184.797 L 84.7972,-178.433
 L 93.8152,-187.451 L 94.0833,-187.312 L 95.2117,-186.844 L 95.5,-186.753 L 95.5,-174 L 104.5,-174
 z
M 99.099,-215.566 L 99.099,-216.434 L 99.7775,-216.975 L 100.623,-216.782 L 101,-216 L 100.623,-215.218
 L 99.7775,-215.025 z
M 99.099,-209.566 L 99.099,-210.434 L 99.7775,-210.975 L 100.623,-210.782 L 101,-210 L 100.623,-209.218
 L 99.7775,-209.025 z
M 99.0246,-195.096 L 98.0866,-195.381 L 97.2222,-195.843 L 96.4645,-196.464 L 95.8427,-197.222 L 95.3806,-198.087
 L 95.0961,-199.025 L 95,-200 L 95.0961,-200.975 L 95.3806,-201.913 L 95.8427,-202.778 L 96.4645,-203.536
 L 97.2222,-204.157 L 98.0866,-204.619 L 99.0246,-204.904 L 100,-205 L 100.975,-204.904 L 101.913,-204.619
 L 102.778,-204.157 L 103.536,-203.536 L 104.157,-202.778 L 104.619,-201.913 L 104.904,-200.975 L 105,-200
 L 104.904,-199.025 L 104.619,-198.087 L 104.157,-197.222 L 103.536,-196.464 L 102.778,-195.843 L 101.913,-195.381
 L 100.975,-195.096 L 100,-195 z
M 99.099,-189.566 L 99.099,-190.434 L 99.7775,-190.975 L 100.623,-190.782 L 101,-190 L 100.623,-189.218
 L 99.7775,-189.025 z
M 99.099,-183.566 L 99.099,-184.434 L 99.7775,-184.975 L 100.623,-184.782 L 101,-184 L 100.623,-183.218
 L 99.7775,-183.025 z
M 4.49998,-186.753 L 4.78827,-186.844 L 5.91664,-187.312 L 6.18477,-187.451 L 11.6673,-181.969 L 18.0312,-188.333
 L 12.5487,-193.815 L 12.6883,-194.083 L 13.1557,-195.212 L 13.2466,-195.5 L 21,-195.5 L 21,-204.5
 L 13.2466,-204.5 L 13.1557,-204.788 L 12.6883,-205.917 L 12.5487,-206.185 L 18.0312,-211.667 L 11.6673,-218.031
 L 6.18477,-212.549 L 5.91664,-212.688 L 4.78827,-213.156 L 4.5,-213.247 L 4.5,-221 L -4.5,-221
 L -4.5,-213.247 L -4.78827,-213.156 L -5.91664,-212.688 L -6.18477,-212.549 L -11.6673,-218.031 L -18.0312,-211.667
 L -12.5487,-206.185 L -12.6883,-205.917 L -13.1557,-204.788 L -13.2466,-204.5 L -21,-204.5 L -21,-195.5
 L -13.2466,-195.5 L -13.1557,-195.212 L -12.6883,-194.083 L -12.5487,-193.815 L -18.0312,-188.333 L -11.6673,-181.969
 L -6.18477,-187.451 L -5.91664,-187.312 L -4.78827,-186.844 L -4.5,-186.753 L -4.5,-179 L 4.49998,-179
 z
M -0.900955,-215.566 L -0.900955,-216.434 L -0.222519,-216.975 L 0.623489,-216.782 L 1,-216 L 0.623489,-215.218
 L -0.222519,-215.025 z
M -0.900955,-209.566 L -0.900955,-210.434 L -0.222519,-210.975 L 0.623489,-210.782 L 1,-210 L 0.623489,-209.218
 L -0.222519,-209.025 z
M -0.975449,-195.096 L -1.91341,-195.381 L -2.77785,-195.843 L -3.53552,-196.464 L -4.15733,-197.222 L -4.61938,-198.087
 L -4.90392,-199.025 L -5,-200 L -4.90392,-200.975 L -4.61938,-201.913 L -4.15733,-202.778 L -3.53552,-203.536
 L -2.77785,-204.157 L -1.91341,-204.619 L -0.975449,-204.904 L 0,-205 L 0.975449,-204.904 L 1.91341,-204.619
 L 2.77785,-204.157 L 3.53552,-203.536 L 4.15733,-202.778 L 4.61938,-201.913 L 4.90392,-200.975 L 5,-200
 L 4.90392,-199.025 L 4.61938,-198.087 L 4.15733,-197.222 L 3.53552,-196.464 L 2.77785,-195.843 L 1.91341,-195.381
 L 0.975449,-195.096 L 0,-195 z
M -0.900955,-189.566 L -0.900955,-190.434 L -0.222519,-190.975 L 0.623489,-190.782 L 1,-190 L 0.623489,-189.218
 L -0.222519,-189.025 z
M -0.900955,-183.566 L -0.900955,-184.434 L -0.222519,-184.975 L 0.623489,-184.782 L 1,-184 L 0.623489,-183.218
 L -0.222519,-183.025 z
M 0.999985,-50.0437 L 4.35777,-50.1903 L 5.52864,-50.3444 L 5.66539,-49.3058 L 7.64827,-49.5668 L 7.51154,-50.6055
 L 8.6824,-50.7596 L 11.9637,-51.4871 L 12.2338,-50.479 L 14.1657,-50.9966 L 13.8956,-52.0047 L 17.101,-53.0154
 L 18.1921,-53.4673 L 18.593,-52.4995 L 20.4407,-53.2648 L 20.0398,-54.2327 L 21.1309,-54.6846 L 24.1121,-56.2365
 L 24.634,-55.3327 L 26.366,-56.3327 L 25.8442,-57.2365 L 28.6788,-59.0424 L 29.6157,-59.7613 L 30.2535,-58.9302
 L 31.8402,-60.1477 L 31.2025,-60.9789 L 32.1394,-61.6978 L 34.6174,-63.9684 L 35.3553,-63.2304 L 36.7695,-64.6447
 L 36.0316,-65.3826 L 38.3022,-67.8606 L 39.0211,-68.7975 L 39.8522,-68.1598 L 41.0698,-69.7465 L 40.2387,-70.3842
 L 40.9576,-71.3212 L 42.7635,-74.1558 L 43.6673,-73.634 L 44.6673,-75.366 L 43.7635,-75.8878 L 45.3154,-78.8691
 L 45.7673,-79.9602 L 46.7352,-79.5593 L 47.5005,-81.407 L 46.5327,-81.8079 L 46.9846,-82.899 L 47.9953,-86.1044
 L 49.0034,-85.8343 L 49.521,-87.7662 L 48.5129,-88.0363 L 49.2404,-91.3176 L 49.3945,-92.4884 L 50.4332,-92.3517
 L 50.6942,-94.3346 L 49.6556,-94.4713 L 49.8097,-95.6422 L 49.9563,-99 L 51,-99 L 51,-101
 L 49.9563,-101 L 49.8097,-104.358 L 49.6556,-105.529 L 50.6942,-105.665 L 50.4332,-107.648 L 49.3945,-107.512
 L 49.2404,-108.682 L 48.5129,-111.964 L 49.521,-112.234 L 49.0034,-114.166 L 47.9953,-113.896 L 46.9846,-117.101
 L 46.5327,-118.192 L 47.5005,-118.593 L 46.7352,-120.441 L 45.7673,-120.04 L 45.3154,-121.131 L 43.7635,-124.112
 L 44.6673,-124.634 L 43.6673,-126.366 L 42.7635,-125.844 L 40.9576,-128.679 L 40.2387,-129.616 L 41.0698,-130.253
 L 39.8522,-131.84 L 39.0211,-131.202 L 38.3022,-132.139 L 36.0316,-134.617 L 36.7695,-135.355 L 35.3553,-136.77
 L 34.6174,-136.032 L 32.1394,-138.302 L 31.2025,-139.021 L 31.8402,-139.852 L 30.2535,-141.07 L 29.6157,-140.239
 L 28.6788,-140.958 L 25.8442,-142.763 L 26.366,-143.667 L 24.634,-144.667 L 24.1121,-143.763 L 21.1309,-145.315
 L 20.0398,-145.767 L 20.4407,-146.735 L 18.593,-147.501 L 18.1921,-146.533 L 17.101,-146.985 L 13.8956,-147.995
 L 14.1657,-149.003 L 12.2338,-149.521 L 11.9637,-148.513 L 8.6824,-149.24 L 7.51154,-149.395 L 7.64827,-150.433
 L 5.66539,-150.694 L 5.52864,-149.656 L 4.35777,-149.81 L 1,-149.956 L 1,-151 L -1,-151
 L -1,-149.956 L -4.35777,-149.81 L -5.52864,-149.656 L -5.66539,-150.694 L -7.64827,-150.433 L -7.51154,-149.395
 L -8.6824,-149.24 L -11.9637,-148.513 L -12.2338,-149.521 L -14.1657,-149.003 L -13.8956,-147.995 L -17.101,-146.985
 L -18.1921,-146.533 L -18.593,-147.501 L -20.4407,-146.735 L -20.0398,-145.767 L -21.1309,-145.315 L -24.1121,-143.763
 L -24.634,-144.667 L -26.366,-143.667 L -25.8442,-142.763 L -28.6788,-140.958 L -29.6157,-140.239 L -30.2535,-141.07
 L -31.8402,-139.852 L -31.2025,-139.021 L -32.1394,-138.302 L -34.6174,-136.032 L -35.3553,-136.77 L -36.7695,-135.355
 L -36.0316,-134.617 L -38.3022,-132.139 L -39.0211,-131.202 L -39.8522,-131.84 L -41.0698,-130.253 L -40.2387,-129.616
 L -40.9576,-128.679 L -42.7635,-125.844 L -43.6673,-126.366 L -44.6673,-124.634 L -43.7635,-124.112 L -45.3154,-121.131
 L -45.7673,-120.04 L -46.7352,-120.441 L -47.5005,-118.593 L -46.5327,-118.192 L -46.9846,-117.101 L -47.9953,-113.896
 L -49.0034,-114.166 L -49.521,-112.234 L -48.5129,-111.964 L -49.2404,-108.682 L -49.3945,-107.512 L -50.4332,-107.648
 L -50.6942,-105.665 L -49.6556,-105.529 L -49.8097,-104.358 L -49.9563,-101 L -51,-101 L -51,-99
 L -49.9563,-99 L -49.8097,-95.6422 L -49.6556,-94.4713 L -50.6942,-94.3346 L -50.4332,-92.3517 L -49.3945,-92.4884
 L -49.2404,-91.3176 L -48.5129,-88.0363 L -49.521,-87.7662 L -49.0034,-85.8343 L -47.9953,-86.1044 L -46.9846,-82.899
 L -46.5327,-81.8079 L -47.5005,-81.407 L -46.7352,-79.5593 L -45.7673,-79.9602 L -45.3154,-78.8691 L -43.7635,-75.8878
 L -44.6673,-75.366 L -43.6673,-73.634 L -42.7635,-74.1558 L -40.9576,-71.3212 L -40.2387,-70.3842 L -41.0698,-69.7465
 L -39.8522,-68.1598 L -39.0211,-68.7975 L -38.3022,-67.8606 L -36.0316,-65.3826 L -36.7695,-64.6447 L -35.3553,-63.2304
 L -34.6174,-63.9684 L -32.1394,-61.6978 L -31.2025,-60.9789 L -31.8402,-60.1477 L -30.2535,-58.9302 L -29.6157,-59.7613
 L -28.6788,-59.0424 L -25.8442,-57.2365 L -26.366,-56.3327 L -24.634,-55.3327 L -24.1121,-56.2365 L -21.1309,-54.6846
 L -20.0398,-54.2327 L -20.4407,-53.2648 L -18.593,-52.4995 L -18.1921,-53.4673 L -17.101,-53.0154 L -13.8956,-52.0047
 L -14.1657,-50.9966 L -12.2338,-50.479 L -11.9637,-51.4871 L -8.6824,-50.7596 L -7.51154,-50.6055 L -7.64827,-49.5668
 L -5.66539,-49.3058 L -5.52864,-50.3444 L -4.35777,-50.1903 L -1,-50.0437 L -1,-49 L 0.999985,-49
 z
M -28.4629,-134.827 L -25.8109,-136.862 L -22.5,-138.971 L -19.0178,-140.784 L -15.3909,-142.286 L -11.6469,-143.467
 L -7.81416,-144.316 L -4.5,-144.753 L -4.5,-114.294 L -5.13029,-114.095 L -6.33926,-113.595 L -6.92548,-113.289
 z
M 6.33926,-113.595 L 5.13029,-114.095 L 4.5,-114.294 L 4.5,-144.753 L 7.81416,-144.316 L 11.6469,-143.467
 L 15.3909,-142.286 L 19.0178,-140.784 L 22.5,-138.971 L 25.8109,-136.862 L 28.4629,-134.827 L 6.92548,-113.289
 z
M -44.7527,-104.5 L -44.3163,-107.814 L -43.4667,-111.647 L -42.2862,-115.391 L -40.7838,-119.018 L -38.9711,-122.5
 L -36.8618,-125.811 L -34.8269,-128.463 L -13.2894,-106.925 L -13.5946,-106.339 L -14.0954,-105.13 L -14.2941,-104.5
 z
M 14.2941,-104.5 L 14.0954,-105.13 L 13.5946,-106.339 L 13.2894,-106.925 L 34.8269,-128.463 L 36.8618,-125.811
 L 38.9711,-122.5 L 40.7838,-119.018 L 42.2862,-115.391 L 43.4667,-111.647 L 44.3163,-107.814 L 44.7527,-104.5
 z
M -0.900955,-124.566 L -0.900955,-125.434 L -0.222519,-125.975 L 0.623489,-125.782 L 1,-125 L 0.623489,-124.218
 L -0.222519,-124.025 z
M -0.900955,-115.566 L -0.900955,-116.434 L -0.222519,-116.975 L 0.623489,-116.782 L 1,-116 L 0.623489,-115.218
 L -0.222519,-115.025 z
M -0.975449,-95.0961 L -1.91341,-95.3806 L -2.77785,-95.8427 L -3.53552,-96.4645 L -4.15733,-97.2222 L -4.61938,-98.0866
 L -4.90392,-99.0246 L -5,-100 L -4.90392,-100.975 L -4.61938,-101.913 L -4.15733,-102.778 L -3.53552,-103.536
 L -2.77785,-104.157 L -1.91341,-104.619 L -0.975449,-104.904 L 0,-105 L 0.975449,-104.904 L 1.91341,-104.619
 L 2.77785,-104.157 L 3.53552,-103.536 L 4.15733,-102.778 L 4.61938,-101.913 L 4.90392,-100.975 L 5,-100
 L 4.90392,-99.0246 L 4.61938,-98.0866 L 4.15733,-97.2222 L 3.53552,-96.4645 L 2.77785,-95.8427 L 1.91341,-95.3806
 L 0.975449,-95.0961 L 0,-95 z
M 13.2894,-93.0745 L 13.5946,-93.6607 L 14.0954,-94.8697 L 14.2941,-95.5 L 44.7527,-95.5 L 44.3163,-92.1858
 L 43.4667,-88.3531 L 42.2862,-84.6091 L 40.7838,-80.9822 L 38.9711,-77.5 L 36.8618,-74.1891 L 34.8269,-71.5371
 z
M -36.8618,-74.1891 L -38.9711,-77.5 L -40.7838,-80.9822 L -42.2862,-84.6091 L -43.4667,-88.3531 L -44.3163,-92.1858
 L -44.7527,-95.5 L -14.2941,-95.5 L -14.0954,-94.8697 L -13.5946,-93.6607 L -13.2894,-93.0745 L -34.8269,-71.5371
 z
M 4.49998,-85.7059 L 5.13029,-85.9046 L 6.33926,-86.4054 L 6.92548,-86.7105 L 28.4629,-65.1731 L 25.8109,-63.1382
 L 22.5,-61.0289 L 19.0178,-59.2161 L 15.3909,-57.7138 L 11.6469,-56.5333 L 7.81416,-55.6836 L 4.49998,-55.2473
 z
M -7.81416,-55.6836 L -11.6469,-56.5333 L -15.3909,-57.7138 L -19.0178,-59.2161 L -22.5,-61.0289 L -25.8109,-63.1382
 L -28.4629,-65.1731 L -6.92548,-86.7105 L -6.33926,-86.4054 L -5.13029,-85.9046 L -4.5,-85.7059 L -4.5,-55.2473
 z
M -0.900955,-83.5661 L -0.900955,-84.4339 L -0.222519,-84.9749 L 0.623489,-84.7818 L 1,-84 L 0.623489,-83.2182
 L -0.222519,-83.0251 z
M -0.900955,-74.5661 L -0.900955,-75.4339 L -0.222519,-75.9749 L 0.623489,-75.7818 L 1,-75 L 0.623489,-74.2182
 L -0.222519,-74.0251 z
M 101,-60.0437 L 103.486,-60.1522 L 105.262,-60.386 L 105.426,-59.3483 L 107.402,-59.6612 L 107.241,-60.6732
 L 110.353,-61.363 L 111.396,-61.6918 L 111.719,-60.6977 L 113.621,-61.3157 L 113.303,-62.2932 L 113.681,-62.4123
 L 116.905,-63.7477 L 117.256,-63.9305 L 117.723,-63.0147 L 119.505,-63.9227 L 119.03,-64.8541 L 120,-65.359
 L 122.688,-67.0714 L 123.29,-66.2425 L 124.908,-67.4181 L 124.291,-68.268 L 125.712,-69.3582 L 127.546,-71.0395
 L 128.284,-70.3015 L 129.698,-71.7157 L 128.961,-72.4537 L 130.642,-74.2885 L 131.732,-75.7093 L 132.582,-75.0918
 L 133.757,-76.7098 L 132.929,-77.312 L 134.641,-80 L 135.146,-80.9699 L 136.077,-80.4954 L 136.985,-82.2774
 L 136.069,-82.744 L 136.252,-83.0953 L 137.588,-86.3192 L 137.707,-86.6969 L 138.684,-86.3792 L 139.302,-88.2814
 L 138.308,-88.6044 L 138.637,-89.6472 L 139.327,-92.7588 L 140.339,-92.5985 L 140.652,-94.5739 L 139.614,-94.7382
 L 139.848,-96.5138 L 139.956,-99 L 141,-99 L 141,-101 L 139.956,-101 L 139.848,-103.486
 L 139.614,-105.262 L 140.652,-105.426 L 140.339,-107.402 L 139.327,-107.241 L 138.637,-110.353 L 138.308,-111.396
 L 139.302,-111.719 L 138.684,-113.621 L 137.707,-113.303 L 137.588,-113.681 L 136.252,-116.905 L 136.069,-117.256
 L 136.985,-117.723 L 136.077,-119.505 L 135.146,-119.03 L 134.641,-120 L 132.929,-122.688 L 133.757,-123.29
 L 132.582,-124.908 L 131.732,-124.291 L 130.642,-125.712 L 128.961,-127.546 L 129.698,-128.284 L 128.284,-129.698
 L 127.546,-128.961 L 125.712,-130.642 L 124.291,-131.732 L 124.908,-132.582 L 123.29,-133.757 L 122.688,-132.929
 L 120,-134.641 L 119.03,-135.146 L 119.505,-136.077 L 117.723,-136.985 L 117.256,-136.069 L 116.905,-136.252
 L 113.681,-137.588 L 113.303,-137.707 L 113.621,-138.684 L 111.719,-139.302 L 111.396,-138.308 L 110.353,-138.637
 L 107.241,-139.327 L 107.402,-140.339 L 105.426,-140.652 L 105.262,-139.614 L 103.486,-139.848 L 101,-139.956
 L 101,-141 L 99,-141 L 99,-139.956 L 96.5138,-139.848 L 94.7382,-139.614 L 94.5739,-140.652
 L 92.5985,-140.339 L 92.7588,-139.327 L 89.6472,-138.637 L 88.6044,-138.308 L 88.2814,-139.302 L 86.3792,-138.684
 L 86.6969,-137.707 L 86.3192,-137.588 L 83.0953,-136.252 L 82.744,-136.069 L 82.2774,-136.985 L 80.4954,-136.077
 L 80.9699,-135.146 L 80,-134.641 L 77.312,-132.929 L 76.7098,-133.757 L 75.0918,-132.582 L 75.7093,-131.732
 L 74.2885,-130.642 L 72.4537,-128.961 L 71.7157,-129.698 L 70.3015,-128.284 L 71.0395,-127.546 L 69.3582,-125.712
 L 68.268,-124.291 L 67.4181,-124.908 L 66.2425,-123.29 L 67.0714,-122.688 L 65.359,-120 L 64.8541,-119.03
 L 63.9227,-119.505 L 63.0147,-117.723 L 63.9305,-117.256 L 63.7477,-116.905 L 62.4123,-113.681 L 62.2932,-113.303
 L 61.3157,-113.621 L 60.6977,-111.719 L 61.6918,-111.396 L 61.363,-110.353 L 60.6732,-107.241 L 59.6612,-107.402
 L 59.3483,-105.426 L 60.386,-105.262 L 60.1522,-103.486 L 60.0437,-101 L 59,-101 L 59,-99
 L 60.0437,-99 L 60.1522,-96.5138 L 60.386,-94.7382 L 59.3483,-94.5739 L 59.6612,-92.5985 L 60.6732,-92.7588
 L 61.363,-89.6472 L 61.6918,-88.6044 L 60.6977,-88.2814 L 61.3157,-86.3792 L 62.2932,-86.6969 L 62.4123,-86.3192
 L 63.7477,-83.0953 L 63.9305,-82.744 L 63.0147,-82.2774 L 63.9227,-80.4954 L 64.8541,-80.9699 L 65.359,-80
 L 67.0714,-77.312 L 66.2425,-76.7098 L 67.4181,-75.0918 L 68.268,-75.7093 L 69.3582,-74.2885 L 71.0395,-72.4537
 L 70.3015,-71.7157 L 71.7157,-70.3015 L 72.4537,-71.0395 L 74.2885,-69.3582 L 75.7093,-68.268 L 75.0918,-67.4181
 L 76.7098,-66.2425 L 77.312,-67.0714 L 80,-65.359 L 80.9699,-64.8541 L 80.4954,-63.9227 L 82.2774,-63.0147
 L 82.744,-63.9305 L 83.0953,-63.7477 L 86.3192,-62.4123 L 86.6969,-62.2932 L 86.3792,-61.3157 L 88.2814,-60.6977
 L 88.6044,-61.6918 L 89.6472,-61.363 L 92.7588,-60.6732 L 92.5985,-59.6612 L 94.5739,-59.3483 L 94.7382,-60.386
 L 96.5138,-60.1522 L 99,-60.0437 L 99,-59 L 101,-59 z
M 106.339,-113.595 L 105.13,-114.095 L 104.5,-114.294 L 104.5,-134.676 L 106.078,-134.468 L 109.059,-133.807
 L 111.971,-132.889 L 114.792,-131.721 L 117.5,-130.311 L 120.075,-128.67 L 121.338,-127.702 L 106.925,-113.289
 z
M 78.6624,-127.702 L 79.9248,-128.67 L 82.5,-130.311 L 85.2084,-131.721 L 88.0293,-132.889 L 90.9413,-133.807
 L 93.9223,-134.468 L 95.5,-134.676 L 95.5,-114.294 L 94.8697,-114.095 L 93.6607,-113.595 L 93.0745,-113.289
 z
M 99.099,-124.566 L 99.099,-125.434 L 99.7775,-125.975 L 100.623,-125.782 L 101,-125 L 100.623,-124.218
 L 99.7775,-124.025 z
M 114.294,-104.5 L 114.095,-105.13 L 113.595,-106.339 L 113.289,-106.925 L 127.702,-121.338 L 128.67,-120.075
 L 130.311,-117.5 L 131.721,-114.792 L 132.889,-111.971 L 133.807,-109.059 L 134.468,-106.078 L 134.676,-104.5
 z
M 65.324,-104.5 L 65.5317,-106.078 L 66.1926,-109.059 L 67.1107,-111.971 L 68.2792,-114.792 L 69.6891,-117.5
 L 71.3297,-120.075 L 72.2984,-121.338 L 86.7105,-106.925 L 86.4054,-106.339 L 85.9046,-105.13 L 85.7059,-104.5
 z
M 99.099,-115.566 L 99.099,-116.434 L 99.7775,-116.975 L 100.623,-116.782 L 101,-116 L 100.623,-115.218
 L 99.7775,-115.025 z
M 99.0246,-95.0961 L 98.0866,-95.3806 L 97.2222,-95.8427 L 96.4645,-96.4645 L 95.8427,-97.2222 L 95.3806,-98.0866
 L 95.0961,-99.0246 L 95,-100 L 95.0961,-100.975 L 95.3806,-101.913 L 95.8427,-102.778 L 96.4645,-103.536
 L 97.2222,-104.157 L 98.0866,-104.619 L 99.0246,-104.904 L 100,-105 L 100.975,-104.904 L 101.913,-104.619
 L 102.778,-104.157 L 103.536,-103.536 L 104.157,-102.778 L 104.619,-101.913 L 104.904,-100.975 L 105,-100
 L 104.904,-99.0246 L 104.619,-98.0866 L 104.157,-97.2222 L 103.536,-96.4645 L 102.778,-95.8427 L 101.913,-95.3806
 L 100.975,-95.0961 L 100,-95 z
M 71.3297,-79.9248 L 69.6891,-82.5 L 68.2792,-85.2084 L 67.1107,-88.0293 L 66.1926,-90.9413 L 65.5317,-93.9223
 L 65.324,-95.5 L 85.7059,-95.5 L 85.9046,-94.8697 L 86.4054,-93.6607 L 86.7105,-93.0745 L 72.2984,-78.6624
 z
M 113.289,-93.0745 L 113.595,-93.6607 L 114.095,-94.8697 L 114.294,-95.5 L 134.676,-95.5 L 134.468,-93.9223
 L 133.807,-90.9413 L 132.889,-88.0293 L 131.721,-85.2084 L 130.311,-82.5 L 128.67,-79.9248 L 127.702,-78.6624
 z
M 93.9223,-65.5317 L 90.9413,-66.1926 L 88.0293,-67.1107 L 85.2084,-68.2792 L 82.5,-69.6891 L 79.9248,-71.3297
 L 78.6624,-72.2984 L 93.0745,-86.7105 L 93.6607,-86.4054 L 94.8697,-85.9046 L 95.5,-85.7059 L 95.5,-65.324
 z
M 104.5,-85.7059 L 105.13,-85.9046 L 106.339,-86.4054 L 106.925,-86.7105 L 121.338,-72.2984 L 120.075,-71.3297
 L 117.5,-69.6891 L 114.792,-68.2792 L 111.971,-67.1107 L 109.059,-66.1926 L 106.078,-65.5317 L 104.5,-65.324
 z
M 99.099,-83.5661 L 99.099,-84.4339 L 99.7775,-84.9749 L 100.623,-84.7818 L 101,-84 L 100.623,-83.2182
 L 99.7775,-83.0251 z
M 99.099,-74.5661 L 99.099,-75.4339 L 99.7775,-75.9749 L 100.623,-75.7818 L 101,-75 L 100.623,-74.2182
 L 99.7775,-74.0251 z
M 201,-65.0437 L 203.05,-65.1332 L 206.078,-65.5317 L 209.059,-66.1926 L 209.852,-66.4427 L 210.174,-65.4529
 L 212.076,-66.071 L 211.759,-67.0442 L 211.971,-67.1107 L 214.792,-68.2792 L 217.5,-69.6891 L 219.746,-71.1202
 L 220.351,-70.2876 L 221.969,-71.4632 L 221.354,-72.3106 L 222.498,-73.1884 L 224.749,-75.2513 L 226.812,-77.5024
 L 227.689,-78.6464 L 228.537,-78.0307 L 229.712,-79.6487 L 228.88,-80.2536 L 230.311,-82.5 L 231.721,-85.2084
 L 232.889,-88.0293 L 232.956,-88.2405 L 233.929,-87.9243 L 234.547,-89.8264 L 233.557,-90.148 L 233.807,-90.9413
 L 234.468,-93.9223 L 234.867,-96.9495 L 234.956,-99 L 236,-99 L 236,-101 L 234.956,-101
 L 234.867,-103.05 L 234.468,-106.078 L 233.807,-109.059 L 233.557,-109.852 L 234.547,-110.174 L 233.929,-112.076
 L 232.956,-111.759 L 232.889,-111.971 L 231.721,-114.792 L 230.311,-117.5 L 228.88,-119.746 L 229.712,-120.351
 L 228.537,-121.969 L 227.689,-121.354 L 226.812,-122.498 L 224.749,-124.749 L 222.498,-126.812 L 221.354,-127.689
 L 221.969,-128.537 L 220.351,-129.712 L 219.746,-128.88 L 217.5,-130.311 L 214.792,-131.721 L 211.971,-132.889
 L 211.759,-132.956 L 212.076,-133.929 L 210.174,-134.547 L 209.852,-133.557 L 209.059,-133.807 L 206.078,-134.468
 L 203.05,-134.867 L 201,-134.956 L 201,-136 L 199,-136 L 199,-134.956 L 196.95,-134.867
 L 193.922,-134.468 L 190.941,-133.807 L 190.148,-133.557 L 189.826,-134.547 L 187.924,-133.929 L 188.241,-132.956
 L 188.029,-132.889 L 185.208,-131.721 L 182.5,-130.311 L 180.254,-128.88 L 179.649,-129.712 L 178.031,-128.537
 L 178.646,-127.689 L 177.502,-126.812 L 175.251,-124.749 L 173.188,-122.498 L 172.311,-121.354 L 171.463,-121.969
 L 170.288,-120.351 L 171.12,-119.746 L 169.689,-117.5 L 168.279,-114.792 L 167.111,-111.971 L 167.044,-111.759
 L 166.071,-112.076 L 165.453,-110.174 L 166.443,-109.852 L 166.193,-109.059 L 165.532,-106.078 L 165.133,-103.05
 L 165.044,-101 L 164,-101 L 164,-99 L 165.044,-99 L 165.133,-96.9495 L 165.532,-93.9223
 L 166.193,-90.9413 L 166.443,-90.148 L 165.453,-89.8264 L 166.071,-87.9243 L 167.044,-88.2405 L 167.111,-88.0293
 L 168.279,-85.2084 L 169.689,-82.5 L 171.12,-80.2536 L 170.288,-79.6487 L 171.463,-78.0307 L 172.311,-78.6464
 L 173.188,-77.5024 L 175.251,-75.2513 L 177.502,-73.1884 L 178.646,-72.3106 L 178.031,-71.4632 L 179.649,-70.2876
 L 180.254,-71.1202 L 182.5,-69.6891 L 185.208,-68.2792 L 188.029,-67.1107 L 188.241,-67.0442 L 187.924,-66.071
 L 189.826,-65.4529 L 190.148,-66.4427 L 190.941,-66.1926 L 193.922,-65.5317 L 196.95,-65.1332 L 199,-65.0437
 L 199,-64 L 201,-64 z
M 210.027,-104.5 L 209.911,-104.773 L 209.443,-105.642 L 208.899,-106.466 L 208.284,-107.237 L 207.602,-107.951
 L 206.858,-108.6 L 206.06,-109.18 L 205.213,-109.687 L 204.5,-110.03 L 204.5,-129.638 L 205.209,-129.544
 L 207.765,-128.978 L 210.261,-128.191 L 212.679,-127.189 L 215,-125.981 L 217.207,-124.575 L 219.284,-122.981
 L 221.213,-121.213 L 222.981,-119.284 L 224.575,-117.207 L 225.981,-115 L 227.189,-112.679 L 228.191,-110.261
 L 228.978,-107.765 L 229.544,-105.209 L 229.638,-104.5 z
M 170.362,-104.5 L 170.456,-105.209 L 171.022,-107.765 L 171.809,-110.261 L 172.811,-112.679 L 174.019,-115
 L 175.425,-117.207 L 177.019,-119.284 L 178.787,-121.213 L 180.716,-122.981 L 182.793,-124.575 L 185,-125.981
 L 187.321,-127.189 L 189.739,-128.191 L 192.235,-128.978 L 194.791,-129.544 L 195.5,-129.638 L 195.5,-110.03
 L 194.787,-109.687 L 193.94,-109.18 L 193.142,-108.6 L 192.398,-107.951 L 191.716,-107.237 L 191.101,-106.466
 L 190.557,-105.642 L 190.089,-104.773 L 189.973,-104.5 z
M 199.099,-115.566 L 199.099,-116.434 L 199.777,-116.975 L 200.623,-116.782 L 201,-116 L 200.623,-115.218
 L 199.777,-115.025 z
M 199.099,-109.566 L 199.099,-110.434 L 199.777,-110.975 L 200.623,-110.782 L 201,-110 L 200.623,-109.218
 L 199.777,-109.025 z
M 199.025,-95.0961 L 198.087,-95.3806 L 197.222,-95.8427 L 196.464,-96.4645 L 195.843,-97.2222 L 195.381,-98.0866
 L 195.096,-99.0246 L 195,-100 L 195.096,-100.975 L 195.381,-101.913 L 195.843,-102.778 L 196.464,-103.536
 L 197.222,-104.157 L 198.087,-104.619 L 199.025,-104.904 L 200,-105 L 200.975,-104.904 L 201.913,-104.619
 L 202.778,-104.157 L 203.536,-103.536 L 204.157,-102.778 L 204.619,-101.913 L 204.904,-100.975 L 205,-100
 L 204.904,-99.0246 L 204.619,-98.0866 L 204.157,-97.2222 L 203.536,-96.4645 L 202.778,-95.8427 L 201.913,-95.3806
 L 200.975,-95.0961 L 200,-95 z
M 204.5,-89.9703 L 205.213,-90.3134 L 206.06,-90.8197 L 206.858,-91.3999 L 207.602,-92.0493 L 208.284,-92.7627
 L 208.899,-93.5344 L 209.443,-94.3581 L 209.911,-95.2273 L 210.027,-95.5 L 229.638,-95.5 L 229.544,-94.7906
 L 228.978,-92.2354 L 228.191,-89.7394 L 227.189,-87.3215 L 225.981,-85 L 224.575,-82.7927 L 222.981,-80.7164
 L 221.213,-78.7868 L 219.284,-77.0187 L 217.207,-75.4254 L 215,-74.0192 L 212.679,-72.8108 L 210.261,-71.8092
 L 207.765,-71.0222 L 205.209,-70.4558 L 204.5,-70.3624 z
M 194.791,-70.4558 L 192.235,-71.0222 L 189.739,-71.8092 L 187.321,-72.8108 L 185,-74.0192 L 182.793,-75.4254
 L 180.716,-77.0187 L 178.787,-78.7868 L 177.019,-80.7164 L 175.425,-82.7927 L 174.019,-85 L 172.811,-87.3215
 L 171.809,-89.7394 L 171.022,-92.2354 L 170.456,-94.7906 L 170.362,-95.5 L 189.973,-95.5 L 190.089,-95.2273
 L 190.557,-94.3581 L 191.101,-93.5344 L 191.716,-92.7627 L 192.398,-92.0493 L 193.142,-91.3999 L 193.94,-90.8197
 L 194.787,-90.3134 L 195.5,-89.9703 L 195.5,-70.3624 z
M 199.099,-89.5661 L 199.099,-90.4339 L 199.777,-90.9749 L 200.623,-90.7818 L 201,-90 L 200.623,-89.2182
 L 199.777,-89.0251 z
M 199.099,-83.5661 L 199.099,-84.4339 L 199.777,-84.9749 L 200.623,-84.7818 L 201,-84 L 200.623,-83.2182
 L 199.777,-83.0251 z
M 301,-70.0437 L 302.615,-70.1142 L 305.209,-70.4558 L 307.765,-71.0222 L 308.308,-71.1936 L 308.628,-70.2082
 L 310.531,-70.8263 L 310.216,-71.7951 L 310.261,-71.8092 L 312.679,-72.8108 L 315,-74.0192 L 316.805,-75.169
 L 317.412,-74.3327 L 319.03,-75.5083 L 318.416,-76.3532 L 319.284,-77.0187 L 321.213,-78.7868 L 322.981,-80.7164
 L 323.647,-81.5836 L 324.492,-80.9696 L 325.667,-82.5877 L 324.831,-83.1953 L 325.981,-85 L 327.189,-87.3215
 L 328.191,-89.7394 L 328.205,-89.7842 L 329.174,-89.4694 L 329.792,-91.3715 L 328.806,-91.6917 L 328.978,-92.2354
 L 329.544,-94.7906 L 329.886,-97.3853 L 329.956,-99 L 331,-99 L 331,-101 L 329.956,-101
 L 329.886,-102.615 L 329.544,-105.209 L 328.978,-107.765 L 328.806,-108.308 L 329.792,-108.628 L 329.174,-110.531
 L 328.205,-110.216 L 328.191,-110.261 L 327.189,-112.679 L 325.981,-115 L 324.831,-116.805 L 325.667,-117.412
 L 324.492,-119.03 L 323.647,-118.416 L 322.981,-119.284 L 321.213,-121.213 L 319.284,-122.981 L 318.416,-123.647
 L 319.03,-124.492 L 317.412,-125.667 L 316.805,-124.831 L 315,-125.981 L 312.679,-127.189 L 310.261,-128.191
 L 310.216,-128.205 L 310.531,-129.174 L 308.628,-129.792 L 308.308,-128.806 L 307.765,-128.978 L 305.209,-129.544
 L 302.615,-129.886 L 301,-129.956 L 301,-131 L 299,-131 L 299,-129.956 L 297.385,-129.886
 L 294.791,-129.544 L 292.235,-128.978 L 291.692,-128.806 L 291.372,-129.792 L 289.469,-129.174 L 289.784,-128.205
 L 289.739,-128.191 L 287.321,-127.189 L 285,-125.981 L 283.195,-124.831 L 282.588,-125.667 L 280.97,-124.492
 L 281.584,-123.647 L 280.716,-122.981 L 278.787,-121.213 L 277.019,-119.284 L 276.353,-118.416 L 275.508,-119.03
 L 274.333,-117.412 L 275.169,-116.805 L 274.019,-115 L 272.811,-112.679 L 271.809,-110.261 L 271.795,-110.216
 L 270.826,-110.531 L 270.208,-108.628 L 271.194,-108.308 L 271.022,-107.765 L 270.456,-105.209 L 270.114,-102.615
 L 270.044,-101 L 269,-101 L 269,-99 L 270.044,-99 L 270.114,-97.3853 L 270.456,-94.7906
 L 271.022,-92.2354 L 271.194,-91.6917 L 270.208,-91.3715 L 270.826,-89.4694 L 271.795,-89.7842 L 271.809,-89.7394
 L 272.811,-87.3215 L 274.019,-85 L 275.169,-83.1953 L 274.333,-82.5877 L 275.508,-80.9696 L 276.353,-81.5836
 L 277.019,-80.7164 L 278.787,-78.7868 L 280.716,-77.0187 L 281.584,-76.3532 L 280.97,-75.5083 L 282.588,-74.3327
 L 283.195,-75.169 L 285,-74.0192 L 287.321,-72.8108 L 289.739,-71.8092 L 289.784,-71.7951 L 289.469,-70.8263
 L 291.372,-70.2082 L 291.692,-71.1936 L 292.235,-71.0222 L 294.791,-70.4558 L 297.385,-70.1142 L 299,-70.0437
 L 299,-69 L 301,-69 z
M 275.415,-104.5 L 275.852,-106.47 L 276.508,-108.551 L 277.342,-110.565 L 278.349,-112.5 L 279.521,-114.339
 L 280.849,-116.07 L 282.322,-117.678 L 283.93,-119.151 L 285.661,-120.479 L 287.5,-121.651 L 289.435,-122.658
 L 291.449,-123.492 L 293.53,-124.148 L 295.5,-124.585 L 295.5,-110.03 L 294.787,-109.687 L 293.94,-109.18
 L 293.142,-108.6 L 292.398,-107.951 L 291.716,-107.237 L 291.101,-106.466 L 290.557,-105.642 L 290.089,-104.773
 L 289.973,-104.5 z
M 310.027,-104.5 L 309.911,-104.773 L 309.443,-105.642 L 308.899,-106.466 L 308.284,-107.237 L 307.602,-107.951
 L 306.858,-108.6 L 306.06,-109.18 L 305.213,-109.687 L 304.5,-110.03 L 304.5,-124.585 L 306.47,-124.148
 L 308.551,-123.492 L 310.565,-122.658 L 312.5,-121.651 L 314.339,-120.479 L 316.07,-119.151 L 317.678,-117.678
 L 319.151,-116.07 L 320.479,-114.339 L 321.651,-112.5 L 322.658,-110.565 L 323.492,-108.551 L 324.148,-106.47
 L 324.585,-104.5 z
M 299.099,-115.566 L 299.099,-116.434 L 299.777,-116.975 L 300.623,-116.782 L 301,-116 L 300.623,-115.218
 L 299.777,-115.025 z
M 299.099,-109.566 L 299.099,-110.434 L 299.777,-110.975 L 300.623,-110.782 L 301,-110 L 300.623,-109.218
 L 299.777,-109.025 z
M 299.025,-95.0961 L 298.087,-95.3806 L 297.222,-95.8427 L 296.464,-96.4645 L 295.843,-97.2222 L 295.381,-98.0866
 L 295.096,-99.0246 L 295,-100 L 295.096,-100.975 L 295.381,-101.913 L 295.843,-102.778 L 296.464,-103.536
 L 297.222,-104.157 L 298.087,-104.619 L 299.025,-104.904 L 300,-105 L 300.975,-104.904 L 301.913,-104.619
 L 302.778,-104.157 L 303.536,-103.536 L 304.157,-102.778 L 304.619,-101.913 L 304.904,-100.975 L 305,-100
 L 304.904,-99.0246 L 304.619,-98.0866 L 304.157,-97.2222 L 303.536,-96.4645 L 302.778,-95.8427 L 301.913,-95.3806
 L 300.975,-95.0961 L 300,-95 z
M 304.5,-89.9703 L 305.213,-90.3134 L 306.06,-90.8197 L 306.858,-91.3999 L 307.602,-92.0493 L 308.284,-92.7627
 L 308.899,-93.5344 L 309.443,-94.3581 L 309.911,-95.2273 L 310.027,-95.5 L 324.585,-95.5 L 324.148,-93.5295
 L 323.492,-91.4495 L 322.658,-89.4345 L 321.651,-87.5 L 320.479,-85.6606 L 319.151,-83.9303 L 317.678,-82.3223
 L 316.07,-80.8489 L 314.339,-79.5212 L 312.5,-78.3494 L 310.565,-77.3423 L 308.551,-76.5077 L 306.47,-75.8519
 L 304.5,-75.415 z
M 293.53,-75.8519 L 291.449,-76.5077 L 289.435,-77.3423 L 287.5,-78.3494 L 285.661,-79.5212 L 283.93,-80.8489
 L 282.322,-82.3223 L 280.849,-83.9303 L 279.521,-85.6606 L 278.349,-87.5 L 277.342,-89.4345 L 276.508,-91.4495
 L 275.852,-93.5295 L 275.415,-95.5 L 289.973,-95.5 L 290.089,-95.2273 L 290.557,-94.3581 L 291.101,-93.5344
 L 291.716,-92.7627 L 292.398,-92.0493 L 293.142,-91.3999 L 293.94,-90.8197 L 294.787,-90.3134 L 295.5,-89.9703
 L 295.5,-75.415 z
M 299.099,-89.5661 L 299.099,-90.4339 L 299.777,-90.9749 L 300.623,-90.7818 L 301,-90 L 300.623,-89.2182
 L 299.777,-89.0251 z
M 299.099,-83.5661 L 299.099,-84.4339 L 299.777,-84.9749 L 300.623,-84.7818 L 301,-84 L 300.623,-83.2182
 L 299.777,-83.0251 z
M 401,-75.0437 L 402.179,-75.0951 L 404.341,-75.3798 L 406.47,-75.8519 L 408.551,-76.5077 L 408.634,-76.5423
 L 409.026,-75.5965 L 410.874,-76.3618 L 410.482,-77.3077 L 410.565,-77.3423 L 412.5,-78.3494 L 414.339,-79.5212
 L 416.07,-80.8489 L 416.94,-81.6461 L 417.678,-80.9081 L 419.092,-82.3223 L 418.354,-83.0603 L 419.151,-83.9303
 L 420.479,-85.6606 L 421.651,-87.5 L 422.658,-89.4345 L 422.692,-89.5181 L 423.638,-89.1263 L 424.404,-90.9741
 L 423.458,-91.3659 L 423.492,-91.4495 L 424.148,-93.5295 L 424.62,-95.6588 L 424.905,-97.8211 L 424.956,-99
 L 426,-99 L 426,-101 L 424.956,-101 L 424.905,-102.179 L 424.62,-104.341 L 424.148,-106.47
 L 423.492,-108.551 L 423.458,-108.634 L 424.404,-109.026 L 423.638,-110.874 L 422.692,-110.482 L 422.658,-110.565
 L 421.651,-112.5 L 420.479,-114.339 L 419.151,-116.07 L 418.354,-116.94 L 419.092,-117.678 L 417.678,-119.092
 L 416.94,-118.354 L 416.07,-119.151 L 414.339,-120.479 L 412.5,-121.651 L 410.565,-122.658 L 410.482,-122.692
 L 410.874,-123.638 L 409.026,-124.404 L 408.634,-123.458 L 408.551,-123.492 L 406.47,-124.148 L 404.341,-124.62
 L 402.179,-124.905 L 401,-124.956 L 401,-126 L 399,-126 L 399,-124.956 L 397.821,-124.905
 L 395.659,-124.62 L 393.53,-124.148 L 391.449,-123.492 L 391.366,-123.458 L 390.974,-124.404 L 389.126,-123.638
 L 389.518,-122.692 L 389.435,-122.658 L 387.5,-121.651 L 385.661,-120.479 L 383.93,-119.151 L 383.06,-118.354
 L 382.322,-119.092 L 380.908,-117.678 L 381.646,-116.94 L 380.849,-116.07 L 379.521,-114.339 L 378.349,-112.5
 L 377.342,-110.565 L 377.308,-110.482 L 376.362,-110.874 L 375.596,-109.026 L 376.542,-108.634 L 376.508,-108.551
 L 375.852,-106.47 L 375.38,-104.341 L 375.095,-102.179 L 375.044,-101 L 374,-101 L 374,-99
 L 375.044,-99 L 375.095,-97.8211 L 375.38,-95.6588 L 375.852,-93.5295 L 376.508,-91.4495 L 376.542,-91.3659
 L 375.596,-90.9741 L 376.362,-89.1263 L 377.308,-89.5181 L 377.342,-89.4345 L 378.349,-87.5 L 379.521,-85.6606
 L 380.849,-83.9303 L 381.646,-83.0603 L 380.908,-82.3223 L 382.322,-80.9081 L 383.06,-81.6461 L 383.93,-80.8489
 L 385.661,-79.5212 L 387.5,-78.3494 L 389.435,-77.3423 L 389.518,-77.3077 L 389.126,-76.3618 L 390.974,-75.5965
 L 391.366,-76.5423 L 391.449,-76.5077 L 393.53,-75.8519 L 395.659,-75.3798 L 397.821,-75.0951 L 399,-75.0437
 L 399,-74 L 401,-74 z
M 380.532,-104.5 L 380.681,-105.176 L 381.206,-106.84 L 381.874,-108.452 L 382.68,-110 L 383.617,-111.472
 L 384.679,-112.856 L 385.858,-114.142 L 387.144,-115.321 L 388.528,-116.383 L 390,-117.321 L 391.548,-118.126
 L 393.16,-118.794 L 394.824,-119.319 L 395.5,-119.468 L 395.5,-110.03 L 394.787,-109.687 L 393.94,-109.18
 L 393.142,-108.6 L 392.398,-107.951 L 391.716,-107.237 L 391.101,-106.466 L 390.557,-105.642 L 390.089,-104.773
 L 389.973,-104.5 z
M 410.027,-104.5 L 409.911,-104.773 L 409.443,-105.642 L 408.899,-106.466 L 408.284,-107.237 L 407.602,-107.951
 L 406.858,-108.6 L 406.06,-109.18 L 405.213,-109.687 L 404.5,-110.03 L 404.5,-119.468 L 405.176,-119.319
 L 406.84,-118.794 L 408.452,-118.126 L 410,-117.321 L 411.472,-116.383 L 412.856,-115.321 L 414.142,-114.142
 L 415.321,-112.856 L 416.383,-111.472 L 417.32,-110 L 418.126,-108.452 L 418.794,-106.84 L 419.319,-105.176
 L 419.468,-104.5 z
M 399.099,-115.566 L 399.099,-116.434 L 399.777,-116.975 L 400.623,-116.782 L 401,-116 L 400.623,-115.218
 L 399.777,-115.025 z
M 399.099,-109.566 L 399.099,-110.434 L 399.777,-110.975 L 400.623,-110.782 L 401,-110 L 400.623,-109.218
 L 399.777,-109.025 z
M 399.025,-95.0961 L 398.087,-95.3806 L 397.222,-95.8427 L 396.464,-96.4645 L 395.843,-97.2222 L 395.381,-98.0866
 L 395.096,-99.0246 L 395,-100 L 395.096,-100.975 L 395.381,-101.913 L 395.843,-102.778 L 396.464,-103.536
 L 397.222,-104.157 L 398.087,-104.619 L 399.025,-104.904 L 400,-105 L 400.975,-104.904 L 401.913,-104.619
 L 402.778,-104.157 L 403.536,-103.536 L 404.157,-102.778 L 404.619,-101.913 L 404.904,-100.975 L 405,-100
 L 404.904,-99.0246 L 404.619,-98.0866 L 404.157,-97.2222 L 403.536,-96.4645 L 402.778,-95.8427 L 401.913,-95.3806
 L 400.975,-95.0961 L 400,-95 z
M 394.824,-80.6815 L 393.16,-81.2061 L 391.548,-81.8738 L 390,-82.6795 L 388.528,-83.617 L 387.144,-84.6791
 L 385.858,-85.8579 L 384.679,-87.1442 L 383.617,-88.5285 L 382.68,-90 L 381.874,-91.5476 L 381.206,-93.1596
 L 380.681,-94.8236 L 380.532,-95.5 L 389.973,-95.5 L 390.089,-95.2273 L 390.557,-94.3581 L 391.101,-93.5344
 L 391.716,-92.7627 L 392.398,-92.0493 L 393.142,-91.3999 L 393.94,-90.8197 L 394.787,-90.3134 L 395.5,-89.9703
 L 395.5,-80.5315 z
M 404.5,-89.9703 L 405.213,-90.3134 L 406.06,-90.8197 L 406.858,-91.3999 L 407.602,-92.0493 L 408.284,-92.7627
 L 408.899,-93.5344 L 409.443,-94.3581 L 409.911,-95.2273 L 410.027,-95.5 L 419.468,-95.5 L 419.319,-94.8236
 L 418.794,-93.1596 L 418.126,-91.5476 L 417.32,-90 L 416.383,-88.5285 L 415.321,-87.1442 L 414.142,-85.8579
 L 412.856,-84.6791 L 411.472,-83.617 L 410,-82.6795 L 408.452,-81.8738 L 406.84,-81.2061 L 405.176,-80.6815
 L 404.5,-80.5315 z
M 399.099,-89.5661 L 399.099,-90.4339 L 399.777,-90.9749 L 400.623,-90.7818 L 401,-90 L 400.623,-89.2182
 L 399.777,-89.0251 z
M 399.099,-83.5661 L 399.099,-84.4339 L 399.777,-84.9749 L 400.623,-84.7818 L 401,-84 L 400.623,-83.2182
 L 399.777,-83.0251 z
M 501,-80.0437 L 501.743,-80.0761 L 503.473,-80.3038 L 505.176,-80.6815 L 506.718,-81.1676 L 507.112,-80.2159
 L 508.96,-80.9812 L 508.566,-81.933 L 510,-82.6795 L 511.472,-83.617 L 512.856,-84.6791 L 513.404,-85.1816
 L 514.142,-84.4436 L 515.556,-85.8579 L 514.818,-86.5958 L 515.321,-87.1442 L 516.383,-88.5285 L 517.32,-90
 L 518.067,-91.434 L 519.019,-91.0398 L 519.784,-92.8875 L 518.832,-93.2818 L 519.319,-94.8236 L 519.696,-96.527
 L 519.924,-98.2569 L 519.956,-99 L 521,-99 L 521,-101 L 519.956,-101 L 519.924,-101.743
 L 519.696,-103.473 L 519.319,-105.176 L 518.832,-106.718 L 519.784,-107.112 L 519.019,-108.96 L 518.067,-108.566
 L 517.32,-110 L 516.383,-111.472 L 515.321,-112.856 L 514.818,-113.404 L 515.556,-114.142 L 514.142,-115.556
 L 513.404,-114.818 L 512.856,-115.321 L 511.472,-116.383 L 510,-117.321 L 508.566,-118.067 L 508.96,-119.019
 L 507.112,-119.784 L 506.718,-118.832 L 505.176,-119.319 L 503.473,-119.696 L 501.743,-119.924 L 501,-119.956
 L 501,-121 L 499,-121 L 499,-119.956 L 498.257,-119.924 L 496.527,-119.696 L 494.824,-119.319
 L 493.282,-118.832 L 492.888,-119.784 L 491.04,-119.019 L 491.434,-118.067 L 490,-117.321 L 488.528,-116.383
 L 487.144,-115.321 L 486.596,-114.818 L 485.858,-115.556 L 484.444,-114.142 L 485.182,-113.404 L 484.679,-112.856
 L 483.617,-111.472 L 482.68,-110 L 481.933,-108.566 L 480.981,-108.96 L 480.216,-107.112 L 481.168,-106.718
 L 480.681,-105.176 L 480.304,-103.473 L 480.076,-101.743 L 480.044,-101 L 479,-101 L 479,-99
 L 480.044,-99 L 480.076,-98.2569 L 480.304,-96.527 L 480.681,-94.8236 L 481.168,-93.2818 L 480.216,-92.8875
 L 480.981,-91.0398 L 481.933,-91.434 L 482.68,-90 L 483.617,-88.5285 L 484.679,-87.1442 L 485.182,-86.5958
 L 484.444,-85.8579 L 485.858,-84.4436 L 486.596,-85.1816 L 487.144,-84.6791 L 488.528,-83.617 L 490,-82.6795
 L 491.434,-81.933 L 491.04,-80.9812 L 492.888,-80.2159 L 493.282,-81.1676 L 494.824,-80.6815 L 496.527,-80.3038
 L 498.257,-80.0761 L 499,-80.0437 L 499,-79 L 501,-79 z
M 499.099,-115.566 L 499.099,-116.434 L 499.777,-116.975 L 500.623,-116.782 L 501,-116 L 500.623,-115.218
 L 499.777,-115.025 z
M 510.027,-104.5 L 509.911,-104.773 L 509.443,-105.642 L 508.899,-106.466 L 508.284,-107.237 L 507.602,-107.951
 L 506.858,-108.6 L 506.06,-109.18 L 505.213,-109.687 L 504.5,-110.03 L 504.5,-114.294 L 505.13,-114.095
 L 506.339,-113.595 L 507.5,-112.99 L 508.604,-112.287 L 509.642,-111.491 L 510.607,-110.607 L 511.491,-109.642
 L 512.287,-108.604 L 512.99,-107.5 L 513.595,-106.339 L 514.095,-105.13 L 514.294,-104.5 z
M 485.706,-104.5 L 485.905,-105.13 L 486.405,-106.339 L 487.01,-107.5 L 487.713,-108.604 L 488.509,-109.642
 L 489.393,-110.607 L 490.358,-111.491 L 491.396,-112.287 L 492.5,-112.99 L 493.661,-113.595 L 494.87,-114.095
 L 495.5,-114.294 L 495.5,-110.03 L 494.787,-109.687 L 493.94,-109.18 L 493.142,-108.6 L 492.398,-107.951
 L 491.716,-107.237 L 491.101,-106.466 L 490.557,-105.642 L 490.089,-104.773 L 489.973,-104.5 z
M 499.099,-109.566 L 499.099,-110.434 L 499.777,-110.975 L 500.623,-110.782 L 501,-110 L 500.623,-109.218
 L 499.777,-109.025 z
M 499.025,-95.0961 L 498.087,-95.3806 L 497.222,-95.8427 L 496.464,-96.4645 L 495.843,-97.2222 L 495.381,-98.0866
 L 495.096,-99.0246 L 495,-100 L 495.096,-100.975 L 495.381,-101.913 L 495.843,-102.778 L 496.464,-103.536
 L 497.222,-104.157 L 498.087,-104.619 L 499.025,-104.904 L 500,-105 L 500.975,-104.904 L 501.913,-104.619
 L 502.778,-104.157 L 503.536,-103.536 L 504.157,-102.778 L 504.619,-101.913 L 504.904,-100.975 L 505,-100
 L 504.904,-99.0246 L 504.619,-98.0866 L 504.157,-97.2222 L 503.536,-96.4645 L 502.778,-95.8427 L 501.913,-95.3806
 L 500.975,-95.0961 L 500,-95 z
M 504.5,-89.9703 L 505.213,-90.3134 L 506.06,-90.8197 L 506.858,-91.3999 L 507.602,-92.0493 L 508.284,-92.7627
 L 508.899,-93.5344 L 509.443,-94.3581 L 509.911,-95.2273 L 510.027,-95.5 L 514.294,-95.5 L 514.095,-94.8697
 L 513.595,-93.6607 L 512.99,-92.5 L 512.287,-91.3963 L 511.491,-90.3582 L 510.607,-89.3934 L 509.642,-88.5093
 L 508.604,-87.7127 L 507.5,-87.0096 L 506.339,-86.4054 L 505.13,-85.9046 L 504.5,-85.7059 z
M 494.87,-85.9046 L 493.661,-86.4054 L 492.5,-87.0096 L 491.396,-87.7127 L 490.358,-88.5093 L 489.393,-89.3934
 L 488.509,-90.3582 L 487.713,-91.3963 L 487.01,-92.5 L 486.405,-93.6607 L 485.905,-94.8697 L 485.706,-95.5
 L 489.973,-95.5 L 490.089,-95.2273 L 490.557,-94.3581 L 491.101,-93.5344 L 491.716,-92.7627 L 492.398,-92.0493
 L 493.142,-91.3999 L 493.94,-90.8197 L 494.787,-90.3134 L 495.5,-89.9703 L 495.5,-85.7059 z
M 499.099,-89.5661 L 499.099,-90.4339 L 499.777,-90.9749 L 500.623,-90.7818 L 501,-90 L 500.623,-89.2182
 L 499.777,-89.0251 z
M 499.099,-83.5661 L 499.099,-84.4339 L 499.777,-84.9749 L 500.623,-84.7818 L 501,-84 L 500.623,-83.2182
 L 499.777,-83.0251 z
M 504.358,49.8097 L 508.682,49.2404 L 512.941,48.2963 L 517.101,46.9846 L 521.131,45.3154 L 525,43.3013
 L 528.679,40.9576 L 532.139,38.3022 L 535.355,35.3553 L 538.302,32.1394 L 540.958,28.6788 L 543.301,25
 L 545.315,21.1309 L 546.985,17.101 L 548.296,12.9409 L 549.24,8.6824 L 549.81,4.35777 L 550,-0
 L 549.81,-4.35777 L 549.24,-8.6824 L 548.296,-12.9409 L 546.985,-17.101 L 545.315,-21.1309 L 543.301,-25
 L 540.958,-28.6788 L 538.302,-32.1394 L 535.355,-35.3553 L 532.139,-38.3022 L 528.679,-40.9576 L 525,-43.3013
 L 521.131,-45.3154 L 517.101,-46.9846 L 512.941,-48.2963 L 508.682,-49.2404 L 504.358,-49.8097 L 500,-50
 L 495.642,-49.8097 L 491.318,-49.2404 L 487.059,-48.2963 L 482.899,-46.9846 L 478.869,-45.3154 L 475,-43.3013
 L 471.321,-40.9576 L 467.861,-38.3022 L 464.645,-35.3553 L 461.698,-32.1394 L 459.042,-28.6788 L 456.699,-25
 L 454.685,-21.1309 L 453.015,-17.101 L 451.704,-12.9409 L 450.76,-8.6824 L 450.19,-4.35777 L 450,-0
 L 450.19,4.35777 L 450.76,8.6824 L 451.704,12.9409 L 453.015,17.101 L 454.685,21.1309 L 456.699,25
 L 459.042,28.6788 L 461.698,32.1394 L 464.645,35.3553 L 467.861,38.3022 L 471.321,40.9576 L 475,43.3013
 L 478.869,45.3154 L 482.899,46.9846 L 487.059,48.2963 L 491.318,49.2404 L 495.642,49.8097 L 500,50
 z
M 506.339,-13.5946 L 505.13,-14.0954 L 504.5,-14.2941 L 504.5,-44.7527 L 507.814,-44.3163 L 511.647,-43.4667
 L 515.391,-42.2862 L 519.018,-40.7838 L 522.5,-38.9711 L 525.811,-36.8618 L 528.463,-34.8269 L 506.925,-13.2894
 z
M 471.537,-34.8269 L 474.189,-36.8618 L 477.5,-38.9711 L 480.982,-40.7838 L 484.609,-42.2862 L 488.353,-43.4667
 L 492.186,-44.3163 L 495.5,-44.7527 L 495.5,-14.2941 L 494.87,-14.0954 L 493.661,-13.5946 L 493.075,-13.2894
 z
M 514.294,-4.49998 L 514.095,-5.13029 L 513.595,-6.33926 L 513.289,-6.92548 L 534.827,-28.4629 L 536.862,-25.8109
 L 538.971,-22.5 L 540.784,-19.0178 L 542.286,-15.3909 L 543.467,-11.6469 L 544.316,-7.81416 L 544.753,-4.49998
 z
M 455.247,-4.5 L 455.684,-7.81416 L 456.533,-11.6469 L 457.714,-15.3909 L 459.216,-19.0178 L 461.029,-22.5
 L 463.138,-25.8109 L 465.173,-28.4629 L 486.711,-6.92548 L 486.405,-6.33926 L 485.905,-5.13029 L 485.706,-4.5
 z
M 499.099,-24.5661 L 499.099,-25.4339 L 499.777,-25.9749 L 500.623,-25.7818 L 501,-25 L 500.623,-24.2182
 L 499.777,-24.0251 z
M 499.099,-15.5661 L 499.099,-16.4339 L 499.777,-16.9749 L 500.623,-16.7818 L 501,-16 L 500.623,-15.2182
 L 499.777,-15.0251 z
M 499.025,4.90392 L 498.087,4.61938 L 497.222,4.15733 L 496.464,3.53552 L 495.843,2.77785 L 495.381,1.91341
 L 495.096,0.975449 L 495,-0 L 495.096,-0.975449 L 495.381,-1.91341 L 495.843,-2.77785 L 496.464,-3.53552
 L 497.222,-4.15733 L 498.087,-4.61938 L 499.025,-4.90392 L 500,-5 L 500.975,-4.90392 L 501.913,-4.61938
 L 502.778,-4.15733 L 503.536,-3.53552 L 504.157,-2.77785 L 504.619,-1.91341 L 504.904,-0.975449 L 505,-0
 L 504.904,0.975449 L 504.619,1.91341 L 504.157,2.77785 L 503.536,3.53552 L 502.778,4.15733 L 501.913,4.61938
 L 500.975,4.90392 L 500,5 z
M 463.138,25.8109 L 461.029,22.5 L 459.216,19.0178 L 457.714,15.3909 L 456.533,11.6469 L 455.684,7.81416
 L 455.247,4.49998 L 485.706,4.49998 L 485.905,5.13029 L 486.405,6.33926 L 486.711,6.92548 L 465.173,28.4629
 z
M 513.289,6.92548 L 513.595,6.33926 L 514.095,5.13029 L 514.294,4.5 L 544.753,4.5 L 544.316,7.81416
 L 543.467,11.6469 L 542.286,15.3909 L 540.784,19.0178 L 538.971,22.5 L 536.862,25.8109 L 534.827,28.4629
 z
M 492.186,44.3163 L 488.353,43.4667 L 484.609,42.2862 L 480.982,40.7838 L 477.5,38.9711 L 474.189,36.8618
 L 471.537,34.8269 L 493.075,13.2894 L 493.661,13.5946 L 494.87,14.0954 L 495.5,14.2941 L 495.5,44.7527
 z
M 504.5,14.2941 L 505.13,14.0954 L 506.339,13.5946 L 506.925,13.2894 L 528.463,34.8269 L 525.811,36.8618
 L 522.5,38.9711 L 519.018,40.7838 L 515.391,42.2862 L 511.647,43.4667 L 507.814,44.3163 L 504.5,44.7527
 z
M 499.099,16.4339 L 499.099,15.5661 L 499.777,15.0251 L 500.623,15.2182 L 501,16 L 500.623,16.7818
 L 499.777,16.9749 z
M 499.099,25.4339 L 499.099,24.5661 L 499.777,24.0251 L 500.623,24.2182 L 501,25 L 500.623,25.7818
 L 499.777,25.9749 z
M 403.486,39.8478 L 406.946,39.3923 L 410.353,38.637 L 413.681,37.5877 L 416.905,36.2523 L 420,34.641
 L 422.943,32.7661 L 425.712,30.6418 L 428.284,28.2843 L 430.642,25.7115 L 432.766,22.9431 L 434.641,20
 L 436.252,16.9047 L 437.588,13.6808 L 438.637,10.3528 L 439.392,6.94592 L 439.848,3.48622 L 440,-0
 L 439.848,-3.48622 L 439.392,-6.94592 L 438.637,-10.3528 L 437.588,-13.6808 L 436.252,-16.9047 L 434.641,-20
 L 432.766,-22.9431 L 430.642,-25.7115 L 428.284,-28.2843 L 425.712,-30.6418 L 422.943,-32.7661 L 420,-34.641
 L 416.905,-36.2523 L 413.681,-37.5877 L 410.353,-38.637 L 406.946,-39.3923 L 403.486,-39.8478 L 400,-40
 L 396.514,-39.8478 L 393.054,-39.3923 L 389.647,-38.637 L 386.319,-37.5877 L 383.095,-36.2523 L 380,-34.641
 L 377.057,-32.7661 L 374.288,-30.6418 L 371.716,-28.2843 L 369.358,-25.7115 L 367.234,-22.9431 L 365.359,-20
 L 363.748,-16.9047 L 362.412,-13.6808 L 361.363,-10.3528 L 360.608,-6.94592 L 360.152,-3.48622 L 360,-0
 L 360.152,3.48622 L 360.608,6.94592 L 361.363,10.3528 L 362.412,13.6808 L 363.748,16.9047 L 365.359,20
 L 367.234,22.9431 L 369.358,25.7115 L 371.716,28.2843 L 374.288,30.6418 L 377.057,32.7661 L 380,34.641
 L 383.095,36.2523 L 386.319,37.5877 L 389.647,38.637 L 393.054,39.3923 L 396.514,39.8478 L 400,40
 z
M 378.662,-27.7016 L 379.925,-28.6703 L 382.5,-30.3109 L 385.208,-31.7208 L 388.029,-32.8892 L 390.941,-33.8074
 L 393.922,-34.4683 L 395.5,-34.676 L 395.5,-14.2941 L 394.87,-14.0954 L 393.661,-13.5946 L 393.075,-13.2894
 z
M 406.339,-13.5946 L 405.13,-14.0954 L 404.5,-14.2941 L 404.5,-34.676 L 406.078,-34.4683 L 409.059,-33.8074
 L 411.971,-32.8892 L 414.792,-31.7208 L 417.5,-30.3109 L 420.075,-28.6703 L 421.338,-27.7016 L 406.925,-13.2894
 z
M 399.099,-24.5661 L 399.099,-25.4339 L 399.777,-25.9749 L 400.623,-25.7818 L 401,-25 L 400.623,-24.2182
 L 399.777,-24.0251 z
M 414.294,-4.49998 L 414.095,-5.13029 L 413.595,-6.33926 L 413.289,-6.92548 L 427.702,-21.3376 L 428.67,-20.0752
 L 430.311,-17.5 L 431.721,-14.7916 L 432.889,-11.9707 L 433.807,-9.05865 L 434.468,-6.07768 L 434.676,-4.49998
 z
M 365.324,-4.5 L 365.532,-6.07768 L 366.193,-9.05865 L 367.111,-11.9707 L 368.279,-14.7916 L 369.689,-17.5
 L 371.33,-20.0752 L 372.298,-21.3376 L 386.711,-6.92548 L 386.405,-6.33926 L 385.905,-5.13029 L 385.706,-4.5
 z
M 399.099,-15.5661 L 399.099,-16.4339 L 399.777,-16.9749 L 400.623,-16.7818 L 401,-16 L 400.623,-15.2182
 L 399.777,-15.0251 z
M 399.025,4.90392 L 398.087,4.61938 L 397.222,4.15733 L 396.464,3.53552 L 395.843,2.77785 L 395.381,1.91341
 L 395.096,0.975449 L 395,-0 L 395.096,-0.975449 L 395.381,-1.91341 L 395.843,-2.77785 L 396.464,-3.53552
 L 397.222,-4.15733 L 398.087,-4.61938 L 399.025,-4.90392 L 400,-5 L 400.975,-4.90392 L 401.913,-4.61938
 L 402.778,-4.15733 L 403.536,-3.53552 L 404.157,-2.77785 L 404.619,-1.91341 L 404.904,-0.975449 L 405,-0
 L 404.904,0.975449 L 404.619,1.91341 L 404.157,2.77785 L 403.536,3.53552 L 402.778,4.15733 L 401.913,4.61938
 L 400.975,4.90392 L 400,5 z
M 371.33,20.0752 L 369.689,17.5 L 368.279,14.7916 L 367.111,11.9707 L 366.193,9.05865 L 365.532,6.07768
 L 365.324,4.49998 L 385.706,4.49998 L 385.905,5.13029 L 386.405,6.33926 L 386.711,6.92548 L 372.298,21.3376
 z
M 413.289,6.92548 L 413.595,6.33926 L 414.095,5.13029 L 414.294,4.5 L 434.676,4.5 L 434.468,6.07768
 L 433.807,9.05865 L 432.889,11.9707 L 431.721,14.7916 L 430.311,17.5 L 428.67,20.0752 L 427.702,21.3376
 z
M 393.922,34.4683 L 390.941,33.8074 L 388.029,32.8892 L 385.208,31.7208 L 382.5,30.3109 L 379.925,28.6703
 L 378.662,27.7016 L 393.075,13.2894 L 393.661,13.5946 L 394.87,14.0954 L 395.5,14.2941 L 395.5,34.676
 z
M 404.5,14.2941 L 405.13,14.0954 L 406.339,13.5946 L 406.925,13.2894 L 421.338,27.7016 L 420.075,28.6703
 L 417.5,30.3109 L 414.792,31.7208 L 411.971,32.8892 L 409.059,33.8074 L 406.078,34.4683 L 404.5,34.676
 z
M 399.099,16.4339 L 399.099,15.5661 L 399.777,15.0251 L 400.623,15.2182 L 401,16 L 400.623,16.7818
 L 399.777,16.9749 z
M 399.099,25.4339 L 399.099,24.5661 L 399.777,24.0251 L 400.623,24.2182 L 401,25 L 400.623,25.7818
 L 399.777,25.9749 z
M 303.05,34.8668 L 306.078,34.4683 L 309.059,33.8074 L 311.971,32.8892 L 314.792,31.7208 L 317.5,30.3109
 L 320.075,28.6703 L 322.498,26.8116 L 324.749,24.7487 L 326.812,22.4976 L 328.67,20.0752 L 330.311,17.5
 L 331.721,14.7916 L 332.889,11.9707 L 333.807,9.05865 L 334.468,6.07768 L 334.867,3.05045 L 335,-0
 L 334.867,-3.05045 L 334.468,-6.07768 L 333.807,-9.05865 L 332.889,-11.9707 L 331.721,-14.7916 L 330.311,-17.5
 L 328.67,-20.0752 L 326.812,-22.4976 L 324.749,-24.7487 L 322.498,-26.8116 L 320.075,-28.6703 L 317.5,-30.3109
 L 314.792,-31.7208 L 311.971,-32.8892 L 309.059,-33.8074 L 306.078,-34.4683 L 303.05,-34.8668 L 300,-35
 L 296.95,-34.8668 L 293.922,-34.4683 L 290.941,-33.8074 L 288.029,-32.8892 L 285.208,-31.7208 L 282.5,-30.3109
 L 279.925,-28.6703 L 277.502,-26.8116 L 275.251,-24.7487 L 273.188,-22.4976 L 271.33,-20.0752 L 269.689,-17.5
 L 268.279,-14.7916 L 267.111,-11.9707 L 266.193,-9.05865 L 265.532,-6.07768 L 265.133,-3.05045 L 265,-0
 L 265.133,3.05045 L 265.532,6.07768 L 266.193,9.05865 L 267.111,11.9707 L 268.279,14.7916 L 269.689,17.5
 L 271.33,20.0752 L 273.188,22.4976 L 275.251,24.7487 L 277.502,26.8116 L 279.925,28.6703 L 282.5,30.3109
 L 285.208,31.7208 L 288.029,32.8892 L 290.941,33.8074 L 293.922,34.4683 L 296.95,34.8668 L 300,35
 z
M 270.362,-4.5 L 270.456,-5.20944 L 271.022,-7.76456 L 271.809,-10.2606 L 272.811,-12.6785 L 274.019,-15
 L 275.425,-17.2073 L 277.019,-19.2836 L 278.787,-21.2132 L 280.716,-22.9813 L 282.793,-24.5746 L 285,-25.9808
 L 287.321,-27.1892 L 289.739,-28.1908 L 292.235,-28.9778 L 294.791,-29.5442 L 295.5,-29.6376 L 295.5,-10.0297
 L 294.787,-9.68654 L 293.94,-9.1803 L 293.142,-8.60014 L 292.398,-7.95073 L 291.716,-7.23732 L 291.101,-6.46564
 L 290.557,-5.64189 L 290.089,-4.77272 L 289.973,-4.5 z
M 310.027,-4.49998 L 309.911,-4.77272 L 309.443,-5.64189 L 308.899,-6.46564 L 308.284,-7.23732 L 307.602,-7.95073
 L 306.858,-8.60014 L 306.06,-9.1803 L 305.213,-9.68654 L 304.5,-10.0297 L 304.5,-29.6376 L 305.209,-29.5442
 L 307.765,-28.9778 L 310.261,-28.1908 L 312.679,-27.1892 L 315,-25.9808 L 317.207,-24.5746 L 319.284,-22.9813
 L 321.213,-21.2132 L 322.981,-19.2836 L 324.575,-17.2073 L 325.981,-15 L 327.189,-12.6785 L 328.191,-10.2606
 L 328.978,-7.76456 L 329.544,-5.20944 L 329.638,-4.49998 z
M 299.099,-15.5661 L 299.099,-16.4339 L 299.777,-16.9749 L 300.623,-16.7818 L 301,-16 L 300.623,-15.2182
 L 299.777,-15.0251 z
M 299.099,-9.5661 L 299.099,-10.4339 L 299.777,-10.9749 L 300.623,-10.7818 L 301,-10 L 300.623,-9.21815
 L 299.777,-9.02507 z
M 299.025,4.90392 L 298.087,4.61938 L 297.222,4.15733 L 296.464,3.53552 L 295.843,2.77785 L 295.381,1.91341
 L 295.096,0.975449 L 295,-0 L 295.096,-0.975449 L 295.381,-1.91341 L 295.843,-2.77785 L 296.464,-3.53552
 L 297.222,-4.15733 L 298.087,-4.61938 L 299.025,-4.90392 L 300,-5 L 300.975,-4.90392 L 301.913,-4.61938
 L 302.778,-4.15733 L 303.536,-3.53552 L 304.157,-2.77785 L 304.619,-1.91341 L 304.904,-0.975449 L 305,-0
 L 304.904,0.975449 L 304.619,1.91341 L 304.157,2.77785 L 303.536,3.53552 L 302.778,4.15733 L 301.913,4.61938
 L 300.975,4.90392 L 300,5 z
M 294.791,29.5442 L 292.235,28.9778 L 289.739,28.1908 L 287.321,27.1892 L 285,25.9808 L 282.793,24.5746
 L 280.716,22.9813 L 278.787,21.2132 L 277.019,19.2836 L 275.425,17.2073 L 274.019,15 L 272.811,12.6785
 L 271.809,10.2606 L 271.022,7.76456 L 270.456,5.20944 L 270.362,4.49998 L 289.973,4.49998 L 290.089,4.77272
 L 290.557,5.64189 L 291.101,6.46564 L 291.716,7.23732 L 292.398,7.95073 L 293.142,8.60014 L 293.94,9.1803
 L 294.787,9.68654 L 295.5,10.0297 L 295.5,29.6376 z
M 304.5,10.0297 L 305.213,9.68654 L 306.06,9.1803 L 306.858,8.60014 L 307.602,7.95073 L 308.284,7.23732
 L 308.899,6.46564 L 309.443,5.64189 L 309.911,4.77272 L 310.027,4.5 L 329.638,4.5 L 329.544,5.20944
 L 328.978,7.76456 L 328.191,10.2606 L 327.189,12.6785 L 325.981,15 L 324.575,17.2073 L 322.981,19.2836
 L 321.213,21.2132 L 319.284,22.9813 L 317.207,24.5746 L 315,25.9808 L 312.679,27.1892 L 310.261,28.1908
 L 307.765,28.9778 L 305.209,29.5442 L 304.5,29.6376 z
M 299.099,10.4339 L 299.099,9.5661 L 299.777,9.02507 L 300.623,9.21815 L 301,10 L 300.623,10.7818
 L 299.777,10.9749 z
M 299.099,16.4339 L 299.099,15.5661 L 299.777,15.0251 L 300.623,15.2182 L 301,16 L 300.623,16.7818
 L 299.777,16.9749 z
M 202.615,29.8858 L 205.209,29.5442 L 207.765,28.9778 L 210.261,28.1908 L 212.679,27.1892 L 215,25.9808
 L 217.207,24.5746 L 219.284,22.9813 L 221.213,21.2132 L 222.981,19.2836 L 224.575,17.2073 L 225.981,15
 L 227.189,12.6785 L 228.191,10.2606 L 228.978,7.76456 L 229.544,5.20944 L 229.886,2.61467 L 230,-0
 L 229.886,-2.61467 L 229.544,-5.20944 L 228.978,-7.76456 L 228.191,-10.2606 L 227.189,-12.6785 L 225.981,-15
 L 224.575,-17.2073 L 222.981,-19.2836 L 221.213,-21.2132 L 219.284,-22.9813 L 217.207,-24.5746 L 215,-25.9808
 L 212.679,-27.1892 L 210.261,-28.1908 L 207.765,-28.9778 L 205.209,-29.5442 L 202.615,-29.8858 L 200,-30
 L 197.385,-29.8858 L 194.791,-29.5442 L 192.235,-28.9778 L 189.739,-28.1908 L 187.321,-27.1892 L 185,-25.9808
 L 182.793,-24.5746 L 180.716,-22.9813 L 178.787,-21.2132 L 177.019,-19.2836 L 175.425,-17.2073 L 174.019,-15
 L 172.811,-12.6785 L 171.809,-10.2606 L 171.022,-7.76456 L 170.456,-5.20944 L 170.114,-2.61467 L 170,-0
 L 170.114,2.61467 L 170.456,5.20944 L 171.022,7.76456 L 171.809,10.2606 L 172.811,12.6785 L 174.019,15
 L 175.425,17.2073 L 177.019,19.2836 L 178.787,21.2132 L 180.716,22.9813 L 182.793,24.5746 L 185,25.9808
 L 187.321,27.1892 L 189.739,28.1908 L 192.235,28.9778 L 194.791,29.5442 L 197.385,29.8858 L 200,30
 z
M 210.027,-4.49998 L 209.911,-4.77272 L 209.443,-5.64189 L 208.899,-6.46564 L 208.284,-7.23732 L 207.602,-7.95073
 L 206.858,-8.60014 L 206.06,-9.1803 L 205.213,-9.68654 L 204.5,-10.0297 L 204.5,-24.585 L 206.47,-24.1481
 L 208.551,-23.4923 L 210.565,-22.6577 L 212.5,-21.6506 L 214.339,-20.4788 L 216.07,-19.1511 L 217.678,-17.6777
 L 219.151,-16.0697 L 220.479,-14.3394 L 221.651,-12.5 L 222.658,-10.5654 L 223.492,-8.55049 L 224.148,-6.47047
 L 224.585,-4.49998 z
M 175.415,-4.5 L 175.852,-6.47047 L 176.508,-8.55049 L 177.342,-10.5654 L 178.349,-12.5 L 179.521,-14.3394
 L 180.849,-16.0697 L 182.322,-17.6777 L 183.93,-19.1511 L 185.661,-20.4788 L 187.5,-21.6506 L 189.435,-22.6577
 L 191.449,-23.4923 L 193.53,-24.1481 L 195.5,-24.585 L 195.5,-10.0297 L 194.787,-9.68654 L 193.94,-9.1803
 L 193.142,-8.60014 L 192.398,-7.95073 L 191.716,-7.23732 L 191.101,-6.46564 L 190.557,-5.64189 L 190.089,-4.77272
 L 189.973,-4.5 z
M 199.099,-15.5661 L 199.099,-16.4339 L 199.777,-16.9749 L 200.623,-16.7818 L 201,-16 L 200.623,-15.2182
 L 199.777,-15.0251 z
M 199.099,-9.5661 L 199.099,-10.4339 L 199.777,-10.9749 L 200.623,-10.7818 L 201,-10 L 200.623,-9.21815
 L 199.777,-9.02507 z
M 199.025,4.90392 L 198.087,4.61938 L 197.222,4.15733 L 196.464,3.53552 L 195.843,2.77785 L 195.381,1.91341
 L 195.096,0.975449 L 195,-0 L 195.096,-0.975449 L 195.381,-1.91341 L 195.843,-2.77785 L 196.464,-3.53552
 L 197.222,-4.15733 L 198.087,-4.61938 L 199.025,-4.90392 L 200,-5 L 200.975,-4.90392 L 201.913,-4.61938
 L 202.778,-4.15733 L 203.536,-3.53552 L 204.157,-2.77785 L 204.619,-1.91341 L 204.904,-0.975449 L 205,-0
 L 204.904,0.975449 L 204.619,1.91341 L 204.157,2.77785 L 203.536,3.53552 L 202.778,4.15733 L 201.913,4.61938
 L 200.975,4.90392 L 200,5 z
M 193.53,24.1481 L 191.449,23.4923 L 189.435,22.6577 L 187.5,21.6506 L 185.661,20.4788 L 183.93,19.1511
 L 182.322,17.6777 L 180.849,16.0697 L 179.521,14.3394 L 178.349,12.5 L 177.342,10.5654 L 176.508,8.55049
 L 175.852,6.47047 L 175.415,4.49998 L 189.973,4.49998 L 190.089,4.77272 L 190.557,5.64189 L 191.101,6.46564
 L 191.716,7.23732 L 192.398,7.95073 L 193.142,8.60014 L 193.94,9.1803 L 194.787,9.68654 L 195.5,10.0297
 L 195.5,24.585 z
M 204.5,10.0297 L 205.213,9.68654 L 206.06,9.1803 L 206.858,8.60014 L 207.602,7.95073 L 208.284,7.23732
 L 208.899,6.46564 L 209.443,5.64189 L 209.911,4.77272 L 210.027,4.5 L 224.585,4.5 L 224.148,6.47047
 L 223.492,8.55049 L 222.658,10.5654 L 221.651,12.5 L 220.479,14.3394 L 219.151,16.0697 L 217.678,17.6777
 L 216.07,19.1511 L 214.339,20.4788 L 212.5,21.6506 L 210.565,22.6577 L 208.551,23.4923 L 206.47,24.1481
 L 204.5,24.585 z
M 199.099,10.4339 L 199.099,9.5661 L 199.777,9.02507 L 200.623,9.21815 L 201,10 L 200.623,10.7818
 L 199.777,10.9749 z
M 199.099,16.4339 L 199.099,15.5661 L 199.777,15.0251 L 200.623,15.2182 L 201,16 L 200.623,16.7818
 L 199.777,16.9749 z
M 102.179,24.9049 L 104.341,24.6202 L 106.47,24.1481 L 108.551,23.4923 L 110.565,22.6577 L 112.5,21.6506
 L 114.339,20.4788 L 116.07,19.1511 L 117.678,17.6777 L 119.151,16.0697 L 120.479,14.3394 L 121.651,12.5
 L 122.658,10.5654 L 123.492,8.55049 L 124.148,6.47047 L 124.62,4.3412 L 124.905,2.17888 L 125,-0
 L 124.905,-2.17888 L 124.62,-4.3412 L 124.148,-6.47047 L 123.492,-8.55049 L 122.658,-10.5654 L 121.651,-12.5
 L 120.479,-14.3394 L 119.151,-16.0697 L 117.678,-17.6777 L 116.07,-19.1511 L 114.339,-20.4788 L 112.5,-21.6506
 L 110.565,-22.6577 L 108.551,-23.4923 L 106.47,-24.1481 L 104.341,-24.6202 L 102.179,-24.9049 L 100,-25
 L 97.8211,-24.9049 L 95.6588,-24.6202 L 93.5295,-24.1481 L 91.4495,-23.4923 L 89.4345,-22.6577 L 87.5,-21.6506
 L 85.6606,-20.4788 L 83.9303,-19.1511 L 82.3223,-17.6777 L 80.8489,-16.0697 L 79.5212,-14.3394 L 78.3494,-12.5
 L 77.3423,-10.5654 L 76.5077,-8.55049 L 75.8519,-6.47047 L 75.3798,-4.3412 L 75.0951,-2.17888 L 75,-0
 L 75.0951,2.17888 L 75.3798,4.3412 L 75.8519,6.47047 L 76.5077,8.55049 L 77.3423,10.5654 L 78.3494,12.5
 L 79.5212,14.3394 L 80.8489,16.0697 L 82.3223,17.6777 L 83.9303,19.1511 L 85.6606,20.4788 L 87.5,21.6506
 L 89.4345,22.6577 L 91.4495,23.4923 L 93.5295,24.1481 L 95.6588,24.6202 L 97.8211,24.9049 L 100,25
 z
M 80.5315,-4.5 L 80.6815,-5.17638 L 81.2061,-6.84039 L 81.8738,-8.45236 L 82.6795,-10 L 83.617,-11.4715
 L 84.6791,-12.8557 L 85.8579,-14.1421 L 87.1442,-15.3209 L 88.5285,-16.383 L 90,-17.3205 L 91.5476,-18.1261
 L 93.1596,-18.7938 L 94.8236,-19.3185 L 95.5,-19.4685 L 95.5,-10.0297 L 94.7874,-9.68654 L 93.9401,-9.1803
 L 93.1416,-8.60014 L 92.3983,-7.95073 L 91.7162,-7.23732 L 91.1008,-6.46564 L 90.5571,-5.64189 L 90.0893,-4.77272
 L 89.9728,-4.5 z
M 110.027,-4.49998 L 109.911,-4.77272 L 109.443,-5.64189 L 108.899,-6.46564 L 108.284,-7.23732 L 107.602,-7.95073
 L 106.858,-8.60014 L 106.06,-9.1803 L 105.213,-9.68654 L 104.5,-10.0297 L 104.5,-19.4685 L 105.176,-19.3185
 L 106.84,-18.7938 L 108.452,-18.1261 L 110,-17.3205 L 111.472,-16.383 L 112.856,-15.3209 L 114.142,-14.1421
 L 115.321,-12.8557 L 116.383,-11.4715 L 117.321,-9.99998 L 118.126,-8.45236 L 118.794,-6.84039 L 119.319,-5.17638
 L 119.468,-4.49998 z
M 99.099,-15.5661 L 99.099,-16.4339 L 99.7775,-16.9749 L 100.623,-16.7818 L 101,-16 L 100.623,-15.2182
 L 99.7775,-15.0251 z
M 99.099,-9.5661 L 99.099,-10.4339 L 99.7775,-10.9749 L 100.623,-10.7818 L 101,-10 L 100.623,-9.21815
 L 99.7775,-9.02507 z
M 99.0246,4.90392 L 98.0866,4.61938 L 97.2222,4.15733 L 96.4645,3.53552 L 95.8427,2.77785 L 95.3806,1.91341
 L 95.0961,0.975449 L 95,-0 L 95.0961,-0.975449 L 95.3806,-1.91341 L 95.8427,-2.77785 L 96.4645,-3.53552
 L 97.2222,-4.15733 L 98.0866,-4.61938 L 99.0246,-4.90392 L 100,-5 L 100.975,-4.90392 L 101.913,-4.61938
 L 102.778,-4.15733 L 103.536,-3.53552 L 104.157,-2.77785 L 104.619,-1.91341 L 104.904,-0.975449 L 105,-0
 L 104.904,0.975449 L 104.619,1.91341 L 104.157,2.77785 L 103.536,3.53552 L 102.778,4.15733 L 101.913,4.61938
 L 100.975,4.90392 L 100,5 z
M 94.8236,19.3185 L 93.1596,18.7938 L 91.5476,18.1261 L 90,17.3205 L 88.5285,16.383 L 87.1442,15.3209
 L 85.8579,14.1421 L 84.6791,12.8557 L 83.617,11.4715 L 82.6795,10 L 81.8738,8.45236 L 81.2061,6.84039
 L 80.6815,5.17638 L 80.5315,4.49998 L 89.9728,4.49998 L 90.0893,4.77272 L 90.5571,5.64189 L 91.1008,6.46564
 L 91.7162,7.23732 L 92.3983,7.95073 L 93.1416,8.60014 L 93.9401,9.1803 L 94.7874,9.68654 L 95.5,10.0297
 L 95.5,19.4685 z
M 104.5,10.0297 L 105.213,9.68654 L 106.06,9.1803 L 106.858,8.60014 L 107.602,7.95073 L 108.284,7.23732
 L 108.899,6.46564 L 109.443,5.64189 L 109.911,4.77272 L 110.027,4.5 L 119.468,4.5 L 119.319,5.17638
 L 118.794,6.84039 L 118.126,8.45236 L 117.321,9.99998 L 116.383,11.4715 L 115.321,12.8557 L 114.142,14.1421
 L 112.856,15.3209 L 111.472,16.383 L 110,17.3205 L 108.452,18.1261 L 106.84,18.7938 L 105.176,19.3185
 L 104.5,19.4685 z
M 99.099,10.4339 L 99.099,9.5661 L 99.7775,9.02507 L 100.623,9.21815 L 101,10 L 100.623,10.7818
 L 99.7775,10.9749 z
M 99.099,16.4339 L 99.099,15.5661 L 99.7775,15.0251 L 100.623,15.2182 L 101,16 L 100.623,16.7818
 L 99.7775,16.9749 z
M 1.7431,19.9239 L 3.47296,19.6962 L 5.17638,19.3185 L 6.84039,18.7938 L 8.45236,18.1261 L 9.99998,17.3205
 L 11.4715,16.383 L 12.8557,15.3209 L 14.1421,14.1421 L 15.3209,12.8557 L 16.383,11.4715 L 17.3205,9.99998
 L 18.1261,8.45236 L 18.7938,6.84039 L 19.3185,5.17638 L 19.6962,3.47296 L 19.9239,1.7431 L 20,-0
 L 19.9239,-1.7431 L 19.6962,-3.47296 L 19.3185,-5.17638 L 18.7938,-6.84039 L 18.1261,-8.45236 L 17.3205,-9.99998
 L 16.383,-11.4715 L 15.3209,-12.8557 L 14.1421,-14.1421 L 12.8557,-15.3209 L 11.4715,-16.383 L 10,-17.3205
 L 8.45236,-18.1261 L 6.84039,-18.7938 L 5.17638,-19.3185 L 3.47296,-19.6962 L 1.7431,-19.9239 L 0,-20
 L -1.7431,-19.9239 L -3.47296,-19.6962 L -5.17638,-19.3185 L -6.84039,-18.7938 L -8.45236,-18.1261 L -9.99998,-17.3205
 L -11.4715,-16.383 L -12.8557,-15.3209 L -14.1421,-14.1421 L -15.3209,-12.8557 L -16.383,-11.4715 L -17.3205,-10
 L -18.1261,-8.45236 L -18.7938,-6.84039 L -19.3185,-5.17638 L -19.6962,-3.47296 L -19.9239,-1.7431 L -20,-0
 L -19.9239,1.7431 L -19.6962,3.47296 L -19.3185,5.17638 L -18.7938,6.84039 L -18.1261,8.45236 L -17.3205,10
 L -16.383,11.4715 L -15.3209,12.8557 L -14.1421,14.1421 L -12.8557,15.3209 L -11.4715,16.383 L -10,17.3205
 L -8.45236,18.1261 L -6.84039,18.7938 L -5.17638,19.3185 L -3.47296,19.6962 L -1.7431,19.9239 L 0,20
 z
M -0.900955,-15.5661 L -0.900955,-16.4339 L -0.222519,-16.9749 L 0.623489,-16.7818 L 1,-16 L 0.623489,-15.2182
 L -0.222519,-15.0251 z
M -14.2941,-4.5 L -14.0954,-5.13029 L -13.5946,-6.33926 L -12.9904,-7.5 L -12.2873,-8.60364 L -11.4907,-9.6418
 L -10.6066,-10.6066 L -9.6418,-11.4907 L -8.60364,-12.2873 L -7.49998,-12.9904 L -6.33926,-13.5946 L -5.13029,-14.0954
 L -4.5,-14.2941 L -4.5,-10.0297 L -5.21255,-9.68654 L -6.05986,-9.1803 L -6.85838,-8.60014 L -7.60168,-7.95073
 L -8.28378,-7.23732 L -8.89919,-6.46564 L -9.44293,-5.64189 L -9.91064,-4.77272 L -10.0272,-4.5 z
M 10.0272,-4.49998 L 9.91064,-4.77272 L 9.44293,-5.64189 L 8.89919,-6.46564 L 8.28378,-7.23732 L 7.60168,-7.95073
 L 6.85838,-8.60014 L 6.05986,-9.1803 L 5.21255,-9.68654 L 4.5,-10.0297 L 4.5,-14.2941 L 5.13029,-14.0954
 L 6.33926,-13.5946 L 7.5,-12.9904 L 8.60364,-12.2873 L 9.6418,-11.4907 L 10.6066,-10.6066 L 11.4907,-9.6418
 L 12.2873,-8.60364 L 12.9904,-7.49998 L 13.5946,-6.33926 L 14.0954,-5.13029 L 14.2941,-4.49998 z
M -0.900955,-9.5661 L -0.900955,-10.4339 L -0.222519,-10.9749 L 0.623489,-10.7818 L 1,-10 L 0.623489,-9.21815
 L -0.222519,-9.02507 z
M -0.975449,4.90392 L -1.91341,4.61938 L -2.77785,4.15733 L -3.53552,3.53552 L -4.15733,2.77785 L -4.61938,1.91341
 L -4.90392,0.975449 L -5,-0 L -4.90392,-0.975449 L -4.61938,-1.91341 L -4.15733,-2.77785 L -3.53552,-3.53552
 L -2.77785,-4.15733 L -1.91341,-4.61938 L -0.975449,-4.90392 L 0,-5 L 0.975449,-4.90392 L 1.91341,-4.61938
 L 2.77785,-4.15733 L 3.53552,-3.53552 L 4.15733,-2.77785 L 4.61938,-1.91341 L 4.90392,-0.975449 L 5,-0
 L 4.90392,0.975449 L 4.61938,1.91341 L 4.15733,2.77785 L 3.53552,3.53552 L 2.77785,4.15733 L 1.91341,4.61938
 L 0.975449,4.90392 L 0,5 z
M -5.13029,14.0954 L -6.33926,13.5946 L -7.5,12.9904 L -8.60364,12.2873 L -9.6418,11.4907 L -10.6066,10.6066
 L -11.4907,9.6418 L -12.2873,8.60364 L -12.9904,7.5 L -13.5946,6.33926 L -14.0954,5.13029 L -14.2941,4.49998
 L -10.0272,4.49998 L -9.91064,4.77272 L -9.44293,5.64189 L -8.89919,6.46564 L -8.28378,7.23732 L -7.60168,7.95073
 L -6.85838,8.60014 L -6.05986,9.1803 L -5.21255,9.68654 L -4.5,10.0297 L -4.5,14.2941 z
M 4.49998,10.0297 L 5.21255,9.68654 L 6.05986,9.1803 L 6.85838,8.60014 L 7.60168,7.95073 L 8.28378,7.23732
 L 8.89919,6.46564 L 9.44293,5.64189 L 9.91064,4.77272 L 10.0272,4.5 L 14.2941,4.5 L 14.0954,5.13029
 L 13.5946,6.33926 L 12.9904,7.49998 L 12.2873,8.60364 L 11.4907,9.6418 L 10.6066,10.6066 L 9.6418,11.4907
 L 8.60364,12.2873 L 7.49998,12.9904 L 6.33926,13.5946 L 5.13029,14.0954 L 4.49998,14.2941 z
M -0.900955,10.4339 L -0.900955,9.5661 L -0.222519,9.02507 L 0.623489,9.21815 L 1,10 L 0.623489,10.7818
 L -0.222519,10.9749 z
M -0.900955,16.4339 L -0.900955,15.5661 L -0.222519,15.0251 L 0.623489,15.2182 L 1,16 L 0.623489,16.7818
 L -0.222519,16.9749 z
" stroke="black" fill="lightgray" stroke-width="0.5"/></svg>
