<?xml version="1.0" standalone="no"?>
<!DOCTYPE svg PUBLIC "-//W3C//DTD SVG 1.1//EN" "http://www.w3.org/Graphics/SVG/1.1/DTD/svg11.dtd">
<svg width="62" height="62" viewBox="-31 -31 62 62" xmlns="http://www.w3.org/2000/svg" version="1.1">
<title>OpenSCAD Model</title>
<path d="
M 4.49998,13.2466 L 4.78827,13.1557 L 5.91664,12.6883 L 6.18477,12.5487 L 18.7383,25.1023 L 25.1023,18.7383
 L 12.5487,6.18477 L 12.6883,5.91664 L 13.1557,4.78827 L 13.2466,4.5 L 31,4.5 L 31,-4.49998
 L 13.2466,-4.49998 L 13.1557,-4.78827 L 12.6883,-5.91664 L 12.5487,-6.18477 L 25.1023,-18.7383 L 18.7383,-25.1023
 L 6.18477,-12.5487 L 5.91664,-12.6883 L 4.78827,-13.1557 L 4.5,-13.2466 L 4.5,-31 L -4.5,-31
 L -4.5,-13.2466 L -4.78827,-13.1557 L -5.91664,-12.6883 L -6.18477,-12.5487 L -18.7383,-25.1023 L -25.1023,-18.7383
 L -12.5487,-6.18477 L -12.6883,-5.91664 L -13.1557,-4.78827 L -13.2466,-4.5 L -31,-4.5 L -31,4.49998
 L -13.2466,4.49998 L -13.1557,4.78827 L -12.6883,5.91664 L -12.5487,6.18477 L -25.1023,18.7383 L -18.7383,25.1023
 L -6.18477,12.5487 L -5.91664,12.6883 L -4.78827,13.1557 L -4.5,13.2466 L -4.5,31 L 4.49998,31
 z
M -0.900955,-15.5661 L -0.900955,-16.4339 L -0.222519,-16.9749 L 0.623489,-16.7818 L 1,-16 L 0.623489,-15.2182
 L -0.222519,-15.0251 z
M -0.900955,-9.5661 L -0.900955,-10.4339 L -0.222519,-10.9749 L 0.623489,-10.7818 L 1,-10 L 0.623489,-9.21815
 L -0.222519,-9.02507 z
M -0.975449,4.90392 L -1.91341,4.61938 L -2.77785,4.15733 L -3.53552,3.53552 L -4.15733,2.77785 L -4.61938,1.91341
 L -4.90392,0.975449 L -5,-0 L -4.90392,-0.975449 L -4.61938,-1.91341 L -4.15733,-2.77785 L -3.53552,-3.53552
 L -2.77785,-4.15733 L -1.91341,-4.61938 L -0.975449,-4.90392 L 0,-5 L 0.975449,-4.90392 L 1.91341,-4.61938
 L 2.77785,-4.15733 L 3.53552,-3.53552 L 4.15733,-2.77785 L 4.61938,-1.91341 L 4.90392,-0.975449 L 5,-0
 L 4.90392,0.975449 L 4.61938,1.91341 L 4.15733,2.77785 L 3.53552,3.53552 L 2.77785,4.15733 L 1.91341,4.61938
 L 0.975449,4.90392 L 0,5 z
M -0.900955,10.4339 L -0.900955,9.5661 L -0.222519,9.02507 L 0.623489,9.21815 L 1,10 L 0.623489,10.7818
 L -0.222519,10.9749 z
M -0.900955,16.4339 L -0.900955,15.5661 L -0.222519,15.0251 L 0.623489,15.2182 L 1,16 L 0.623489,16.7818
 L -0.222519,16.9749 z
" stroke="black" fill="lightgray" stroke-width="0.5"/></svg>
