<?xml version="1.0" standalone="no"?>
<!DOCTYPE svg PUBLIC "-//W3C//DTD SVG 1.1//EN" "http://www.w3.org/Graphics/SVG/1.1/DTD/svg11.dtd">
<svg width="80" height="80" viewBox="-40 -40 80 80" xmlns="http://www.w3.org/2000/svg" version="1.1">
<title>OpenSCAD Model</title>
<path d="
M 3.48622,39.8478 L 6.94592,39.3923 L 10.3528,38.637 L 13.6808,37.5877 L 16.9047,36.2523 L 20,34.641
 L 22.9431,32.7661 L 25.7115,30.6418 L 28.2843,28.2843 L 30.6418,25.7115 L 32.7661,22.9431 L 34.641,20
 L 36.2523,16.9047 L 37.5877,13.6808 L 38.637,10.3528 L 39.3923,6.94592 L 39.8478,3.48622 L 40,-0
 L 39.8478,-3.48622 L 39.3923,-6.94592 L 38.637,-10.3528 L 37.5877,-13.6808 L 36.2523,-16.9047 L 34.641,-20
 L 32.7661,-22.9431 L 30.6418,-25.7115 L 28.2843,-28.2843 L 25.7115,-30.6418 L 22.9431,-32.7661 L 20,-34.641
 L 16.9047,-36.2523 L 13.6808,-37.5877 L 10.3528,-38.637 L 6.94592,-39.3923 L 3.48622,-39.8478 L 0,-40
 L -3.48622,-39.8478 L -6.94592,-39.3923 L -10.3528,-38.637 L -13.6808,-37.5877 L -16.9047,-36.2523 L -20,-34.641
 L -22.9431,-32.7661 L -25.7115,-30.6418 L -28.2843,-28.2843 L -30.6418,-25.7115 L -32.7661,-22.9431 L -34.641,-20
 L -36.2523,-16.9047 L -37.5877,-13.6808 L -38.637,-10.3528 L -39.3923,-6.94592 L -39.8478,-3.48622 L -40,-0
 L -39.8478,3.48622 L -39.3923,6.94592 L -38.637,10.3528 L -37.5877,13.6808 L -36.2523,16.9047 L -34.641,20
 L -32.7661,22.9431 L -30.6418,25.7115 L -28.2843,28.2843 L -25.7115,30.6418 L -22.9431,32.7661 L -20,34.641
 L -16.9047,36.2523 L -13.6808,37.5877 L -10.3528,38.637 L -6.94592,39.3923 L -3.48622,39.8478 L 0,40
 z
M -21.3376,-27.7016 L -20.0752,-28.6703 L -17.5,-30.3109 L -14.7916,-31.7208 L -11.9707,-32.8892 L -9.05865,-33.8074
 L -6.07768,-34.4683 L -4.5,-34.676 L -4.5,-14.2941 L -5.13029,-14.0954 L -6.33926,-13.5946 L -6.92548,-13.2894
 z
M 6.33926,-13.5946 L 5.13029,-14.0954 L 4.5,-14.2941 L 4.5,-34.676 L 6.07768,-34.4683 L 9.05865,-33.8074
 L 11.9707,-32.8892 L 14.7916,-31.7208 L 17.5,-30.3109 L 20.0752,-28.6703 L 21.3376,-27.7016 L 6.92548,-13.2894
 z
M -0.900955,-24.5661 L -0.900955,-25.4339 L -0.222519,-25.9749 L 0.623489,-25.7818 L 1,-25 L 0.623489,-24.2182
 L -0.222519,-24.0251 z
M -34.676,-4.5 L -34.4683,-6.07768 L -33.8074,-9.05865 L -32.8892,-11.9707 L -31.7208,-14.7916 L -30.3109,-17.5
 L -28.6703,-20.0752 L -27.7016,-21.3376 L -13.2894,-6.92548 L -13.5946,-6.33926 L -14.0954,-5.13029 L -14.2941,-4.5
 z
M 14.2941,-4.49998 L 14.0954,-5.13029 L 13.5946,-6.33926 L 13.2894,-6.92548 L 27.7016,-21.3376 L 28.6703,-20.0752
 L 30.3109,-17.5 L 31.7208,-14.7916 L 32.8892,-11.9707 L 33.8074,-9.05865 L 34.4683,-6.07768 L 34.676,-4.49998
 z
M -0.900955,-15.5661 L -0.900955,-16.4339 L -0.222519,-16.9749 L 0.623489,-16.7818 L 1,-16 L 0.623489,-15.2182
 L -0.222519,-15.0251 z
M -0.975449,4.90392 L -1.91341,4.61938 L -2.77785,4.15733 L -3.53552,3.53552 L -4.15733,2.77785 L -4.61938,1.91341
 L -4.90392,0.975449 L -5,-0 L -4.90392,-0.975449 L -4.61938,-1.91341 L -4.15733,-2.77785 L -3.53552,-3.53552
 L -2.77785,-4.15733 L -1.91341,-4.61938 L -0.975449,-4.90392 L 0,-5 L 0.975449,-4.90392 L 1.91341,-4.61938
 L 2.77785,-4.15733 L 3.53552,-3.53552 L 4.15733,-2.77785 L 4.61938,-1.91341 L 4.90392,-0.975449 L 5,-0
 L 4.90392,0.975449 L 4.61938,1.91341 L 4.15733,2.77785 L 3.53552,3.53552 L 2.77785,4.15733 L 1.91341,4.61938
 L 0.975449,4.90392 L 0,5 z
M -28.6703,20.0752 L -30.3109,17.5 L -31.7208,14.7916 L -32.8892,11.9707 L -33.8074,9.05865 L -34.4683,6.07768
 L -34.676,4.49998 L -14.2941,4.49998 L -14.0954,5.13029 L -13.5946,6.33926 L -13.2894,6.92548 L -27.7016,21.3376
 z
M 13.2894,6.92548 L 13.5946,6.33926 L 14.0954,5.13029 L 14.2941,4.5 L 34.676,4.5 L 34.4683,6.07768
 L 33.8074,9.05865 L 32.8892,11.9707 L 31.7208,14.7916 L 30.3109,17.5 L 28.6703,20.0752 L 27.7016,21.3376
 z
M 4.49998,14.2941 L 5.13029,14.0954 L 6.33926,13.5946 L 6.92548,13.2894 L 21.3376,27.7016 L 20.0752,28.6703
 L 17.5,30.3109 L 14.7916,31.7208 L 11.9707,32.8892 L 9.05865,33.8074 L 6.07768,34.4683 L 4.49998,34.676
 z
M -6.07768,34.4683 L -9.05865,33.8074 L -11.9707,32.8892 L -14.7916,31.7208 L -17.5,30.3109 L -20.0752,28.6703
 L -21.3376,27.7016 L -6.92548,13.2894 L -6.33926,13.5946 L -5.13029,14.0954 L -4.5,14.2941 L -4.5,34.676
 z
M -0.900955,16.4339 L -0.900955,15.5661 L -0.222519,15.0251 L 0.623489,15.2182 L 1,16 L 0.623489,16.7818
 L -0.222519,16.9749 z
M -0.900955,25.4339 L -0.900955,24.5661 L -0.222519,24.0251 L 0.623489,24.2182 L 1,25 L 0.623489,25.7818
 L -0.222519,25.9749 z
" stroke="black" fill="lightgray" stroke-width="0.5"/></svg>
