<?xml version="1.0" standalone="no"?>
<!DOCTYPE svg PUBLIC "-//W3C//DTD SVG 1.1//EN" "http://www.w3.org/Graphics/SVG/1.1/DTD/svg11.dtd">
<svg width="72" height="72" viewBox="-36 -36 72 72" xmlns="http://www.w3.org/2000/svg" version="1.1">
<title>OpenSCAD Model</title>
<path d="
M 0.999985,34.9563 L 3.05045,34.8668 L 6.07768,34.4683 L 9.05865,33.8074 L 9.85194,33.5573 L 10.1736,34.547
 L 12.0757,33.929 L 11.7595,32.9558 L 11.9707,32.8892 L 14.7916,31.7208 L 17.5,30.3109 L 19.7463,28.8798
 L 20.3512,29.7124 L 21.9693,28.5368 L 21.3536,27.6894 L 22.4976,26.8116 L 24.7487,24.7487 L 26.8116,22.4976
 L 27.6894,21.3536 L 28.5368,21.9693 L 29.7124,20.3512 L 28.8798,19.7463 L 30.3109,17.5 L 31.7208,14.7916
 L 32.8892,11.9707 L 32.9558,11.7595 L 33.929,12.0757 L 34.547,10.1736 L 33.5573,9.85194 L 33.8074,9.05865
 L 34.4683,6.07768 L 34.8668,3.05045 L 34.9563,1 L 36,1 L 36,-0.999985 L 34.9563,-0.999985
 L 34.8668,-3.05045 L 34.4683,-6.07768 L 33.8074,-9.05865 L 33.5573,-9.85194 L 34.547,-10.1736 L 33.929,-12.0757
 L 32.9558,-11.7595 L 32.8892,-11.9707 L 31.7208,-14.7916 L 30.3109,-17.5 L 28.8798,-19.7463 L 29.7124,-20.3512
 L 28.5368,-21.9693 L 27.6894,-21.3536 L 26.8116,-22.4976 L 24.7487,-24.7487 L 22.4976,-26.8116 L 21.3536,-27.6894
 L 21.9693,-28.5368 L 20.3512,-29.7124 L 19.7463,-28.8798 L 17.5,-30.3109 L 14.7916,-31.7208 L 11.9707,-32.8892
 L 11.7595,-32.9558 L 12.0757,-33.929 L 10.1736,-34.547 L 9.85194,-33.5573 L 9.05865,-33.8074 L 6.07768,-34.4683
 L 3.05045,-34.8668 L 1,-34.9563 L 1,-36 L -1,-36 L -1,-34.9563 L -3.05045,-34.8668
 L -6.07768,-34.4683 L -9.05865,-33.8074 L -9.85194,-33.5573 L -10.1736,-34.547 L -12.0757,-33.929 L -11.7595,-32.9558
 L -11.9707,-32.8892 L -14.7916,-31.7208 L -17.5,-30.3109 L -19.7463,-28.8798 L -20.3512,-29.7124 L -21.9693,-28.5368
 L -21.3536,-27.6894 L -22.4976,-26.8116 L -24.7487,-24.7487 L -26.8116,-22.4976 L -27.6894,-21.3536 L -28.5368,-21.9693
 L -29.7124,-20.3512 L -28.8798,-19.7463 L -30.3109,-17.5 L -31.7208,-14.7916 L -32.8892,-11.9707 L -32.9558,-11.7595
 L -33.929,-12.0757 L -34.547,-10.1736 L -33.5573,-9.85194 L -33.8074,-9.05865 L -34.4683,-6.07768 L -34.8668,-3.05045
 L -34.9563,-1 L -36,-1 L -36,0.999985 L -34.9563,0.999985 L -34.8668,3.05045 L -34.4683,6.07768
 L -33.8074,9.05865 L -33.5573,9.85194 L -34.547,10.1736 L -33.929,12.0757 L -32.9558,11.7595 L -32.8892,11.9707
 L -31.7208,14.7916 L -30.3109,17.5 L -28.8798,19.7463 L -29.7124,20.3512 L -28.5368,21.9693 L -27.6894,21.3536
 L -26.8116,22.4976 L -24.7487,24.7487 L -22.4976,26.8116 L -21.3536,27.6894 L -21.9693,28.5368 L -20.3512,29.7124
 L -19.7463,28.8798 L -17.5,30.3109 L -14.7916,31.7208 L -11.9707,32.8892 L -11.7595,32.9558 L -12.0757,33.929
 L -10.1736,34.547 L -9.85194,33.5573 L -9.05865,33.8074 L -6.07768,34.4683 L -3.05045,34.8668 L -1,34.9563
 L -1,36 L 0.999985,36 z
M 10.0272,-4.49998 L 9.91064,-4.77272 L 9.44293,-5.64189 L 8.89919,-6.46564 L 8.28378,-7.23732 L 7.60168,-7.95073
 L 6.85838,-8.60014 L 6.05986,-9.1803 L 5.21255,-9.68654 L 4.5,-10.0297 L 4.5,-29.6376 L 5.20944,-29.5442
 L 7.76456,-28.9778 L 10.2606,-28.1908 L 12.6785,-27.1892 L 15,-25.9808 L 17.2073,-24.5746 L 19.2836,-22.9813
 L 21.2132,-21.2132 L 22.9813,-19.2836 L 24.5746,-17.2073 L 25.9808,-15 L 27.1892,-12.6785 L 28.1908,-10.2606
 L 28.9778,-7.76456 L 29.5442,-5.20944 L 29.6376,-4.49998 z
M -29.6376,-4.5 L -29.5442,-5.20944 L -28.9778,-7.76456 L -28.1908,-10.2606 L -27.1892,-12.6785 L -25.9808,-15
 L -24.5746,-17.2073 L -22.9813,-19.2836 L -21.2132,-21.2132 L -19.2836,-22.9813 L -17.2073,-24.5746 L -15,-25.9808
 L -12.6785,-27.1892 L -10.2606,-28.1908 L -7.76456,-28.9778 L -5.20944,-29.5442 L -4.5,-29.6376 L -4.5,-10.0297
 L -5.21255,-9.68654 L -6.05986,-9.1803 L -6.85838,-8.60014 L -7.60168,-7.95073 L -8.28378,-7.23732 L -8.89919,-6.46564
 L -9.44293,-5.64189 L -9.91064,-4.77272 L -10.0272,-4.5 z
M -0.900955,-15.5661 L -0.900955,-16.4339 L -0.222519,-16.9749 L 0.623489,-16.7818 L 1,-16 L 0.623489,-15.2182
 L -0.222519,-15.0251 z
M -0.900955,-9.5661 L -0.900955,-10.4339 L -0.222519,-10.9749 L 0.623489,-10.7818 L 1,-10 L 0.623489,-9.21815
 L -0.222519,-9.02507 z
M -0.975449,4.90392 L -1.91341,4.61938 L -2.77785,4.15733 L -3.53552,3.53552 L -4.15733,2.77785 L -4.61938,1.91341
 L -4.90392,0.975449 L -5,-0 L -4.90392,-0.975449 L -4.61938,-1.91341 L -4.15733,-2.77785 L -3.53552,-3.53552
 L -2.77785,-4.15733 L -1.91341,-4.61938 L -0.975449,-4.90392 L 0,-5 L 0.975449,-4.90392 L 1.91341,-4.61938
 L 2.77785,-4.15733 L 3.53552,-3.53552 L 4.15733,-2.77785 L 4.61938,-1.91341 L 4.90392,-0.975449 L 5,-0
 L 4.90392,0.975449 L 4.61938,1.91341 L 4.15733,2.77785 L 3.53552,3.53552 L 2.77785,4.15733 L 1.91341,4.61938
 L 0.975449,4.90392 L 0,5 z
M -5.20944,29.5442 L -7.76456,28.9778 L -10.2606,28.1908 L -12.6785,27.1892 L -15,25.9808 L -17.2073,24.5746
 L -19.2836,22.9813 L -21.2132,21.2132 L -22.9813,19.2836 L -24.5746,17.2073 L -25.9808,15 L -27.1892,12.6785
 L -28.1908,10.2606 L -28.9778,7.76456 L -29.5442,5.20944 L -29.6376,4.49998 L -10.0272,4.49998 L -9.91064,4.77272
 L -9.44293,5.64189 L -8.89919,6.46564 L -8.28378,7.23732 L -7.60168,7.95073 L -6.85838,8.60014 L -6.05986,9.1803
 L -5.21255,9.68654 L -4.5,10.0297 L -4.5,29.6376 z
M 4.49998,10.0297 L 5.21255,9.68654 L 6.05986,9.1803 L 6.85838,8.60014 L 7.60168,7.95073 L 8.28378,7.23732
 L 8.89919,6.46564 L 9.44293,5.64189 L 9.91064,4.77272 L 10.0272,4.5 L 29.6376,4.5 L 29.5442,5.20944
 L 28.9778,7.76456 L 28.1908,10.2606 L 27.1892,12.6785 L 25.9808,15 L 24.5746,17.2073 L 22.9813,19.2836
 L 21.2132,21.2132 L 19.2836,22.9813 L 17.2073,24.5746 L 15,25.9808 L 12.6785,27.1892 L 10.2606,28.1908
 L 7.76456,28.9778 L 5.20944,29.5442 L 4.49998,29.6376 z
M -0.900955,10.4339 L -0.900955,9.5661 L -0.222519,9.02507 L 0.623489,9.21815 L 1,10 L 0.623489,10.7818
 L -0.222519,10.9749 z
M -0.900955,16.4339 L -0.900955,15.5661 L -0.222519,15.0251 L 0.623489,15.2182 L 1,16 L 0.623489,16.7818
 L -0.222519,16.9749 z
" stroke="black" fill="lightgray" stroke-width="0.5"/></svg>
