<?xml version="1.0" standalone="no"?>
<!DOCTYPE svg PUBLIC "-//W3C//DTD SVG 1.1//EN" "http://www.w3.org/Graphics/SVG/1.1/DTD/svg11.dtd">
<svg width="100" height="100" viewBox="-50 -50 100 100" xmlns="http://www.w3.org/2000/svg" version="1.1">
<title>OpenSCAD Model</title>
<path d="
M 4.35777,49.8097 L 8.6824,49.2404 L 12.9409,48.2963 L 17.101,46.9846 L 21.1309,45.3154 L 25,43.3013
 L 28.6788,40.9576 L 32.1394,38.3022 L 35.3553,35.3553 L 38.3022,32.1394 L 40.9576,28.6788 L 43.3013,25
 L 45.3154,21.1309 L 46.9846,17.101 L 48.2963,12.9409 L 49.2404,8.6824 L 49.8097,4.35777 L 50,-0
 L 49.8097,-4.35777 L 49.2404,-8.6824 L 48.2963,-12.9409 L 46.9846,-17.101 L 45.3154,-21.1309 L 43.3013,-25
 L 40.9576,-28.6788 L 38.3022,-32.1394 L 35.3553,-35.3553 L 32.1394,-38.3022 L 28.6788,-40.9576 L 25,-43.3013
 L 21.1309,-45.3154 L 17.101,-46.9846 L 12.9409,-48.2963 L 8.6824,-49.2404 L 4.35777,-49.8097 L 0,-50
 L -4.35777,-49.8097 L -8.6824,-49.2404 L -12.9409,-48.2963 L -17.101,-46.9846 L -21.1309,-45.3154 L -25,-43.3013
 L -28.6788,-40.9576 L -32.1394,-38.3022 L -35.3553,-35.3553 L -38.3022,-32.1394 L -40.9576,-28.6788 L -43.3013,-25
 L -45.3154,-21.1309 L -46.9846,-17.101 L -48.2963,-12.9409 L -49.2404,-8.6824 L -49.8097,-4.35777 L -50,-0
 L -49.8097,4.35777 L -49.2404,8.6824 L -48.2963,12.9409 L -46.9846,17.101 L -45.3154,21.1309 L -43.3013,25
 L -40.9576,28.6788 L -38.3022,32.1394 L -35.3553,35.3553 L -32.1394,38.3022 L -28.6788,40.9576 L -25,43.3013
 L -21.1309,45.3154 L -17.101,46.9846 L -12.9409,48.2963 L -8.6824,49.2404 L -4.35777,49.8097 L 0,50
 z
M -28.4629,-34.8269 L -25.8109,-36.8618 L -22.5,-38.9711 L -19.0178,-40.7838 L -15.3909,-42.2862 L -11.6469,-43.4667
 L -7.81416,-44.3163 L -4.5,-44.7527 L -4.5,-14.2941 L -5.13029,-14.0954 L -6.33926,-13.5946 L -6.92548,-13.2894
 z
M 6.33926,-13.5946 L 5.13029,-14.0954 L 4.5,-14.2941 L 4.5,-44.7527 L 7.81416,-44.3163 L 11.6469,-43.4667
 L 15.3909,-42.2862 L 19.0178,-40.7838 L 22.5,-38.9711 L 25.8109,-36.8618 L 28.4629,-34.8269 L 6.92548,-13.2894
 z
M -44.7527,-4.5 L -44.3163,-7.81416 L -43.4667,-11.6469 L -42.2862,-15.3909 L -40.7838,-19.0178 L -38.9711,-22.5
 L -36.8618,-25.8109 L -34.8269,-28.4629 L -13.2894,-6.92548 L -13.5946,-6.33926 L -14.0954,-5.13029 L -14.2941,-4.5
 z
M 14.2941,-4.49998 L 14.0954,-5.13029 L 13.5946,-6.33926 L 13.2894,-6.92548 L 34.8269,-28.4629 L 36.8618,-25.8109
 L 38.9711,-22.5 L 40.7838,-19.0178 L 42.2862,-15.3909 L 43.4667,-11.6469 L 44.3163,-7.81416 L 44.7527,-4.49998
 z
M -0.900955,-24.5661 L -0.900955,-25.4339 L -0.222519,-25.9749 L 0.623489,-25.7818 L 1,-25 L 0.623489,-24.2182
 L -0.222519,-24.0251 z
M -0.900955,-15.5661 L -0.900955,-16.4339 L -0.222519,-16.9749 L 0.623489,-16.7818 L 1,-16 L 0.623489,-15.2182
 L -0.222519,-15.0251 z
M -0.975449,4.90392 L -1.91341,4.61938 L -2.77785,4.15733 L -3.53552,3.53552 L -4.15733,2.77785 L -4.61938,1.91341
 L -4.90392,0.975449 L -5,-0 L -4.90392,-0.975449 L -4.61938,-1.91341 L -4.15733,-2.77785 L -3.53552,-3.53552
 L -2.77785,-4.15733 L -1.91341,-4.61938 L -0.975449,-4.90392 L 0,-5 L 0.975449,-4.90392 L 1.91341,-4.61938
 L 2.77785,-4.15733 L 3.53552,-3.53552 L 4.15733,-2.77785 L 4.61938,-1.91341 L 4.90392,-0.975449 L 5,-0
 L 4.90392,0.975449 L 4.61938,1.91341 L 4.15733,2.77785 L 3.53552,3.53552 L 2.77785,4.15733 L 1.91341,4.61938
 L 0.975449,4.90392 L 0,5 z
M -36.8618,25.8109 L -38.9711,22.5 L -40.7838,19.0178 L -42.2862,15.3909 L -43.4667,11.6469 L -44.3163,7.81416
 L -44.7527,4.49998 L -14.2941,4.49998 L -14.0954,5.13029 L -13.5946,6.33926 L -13.2894,6.92548 L -34.8269,28.4629
 z
M 13.2894,6.92548 L 13.5946,6.33926 L 14.0954,5.13029 L 14.2941,4.5 L 44.7527,4.5 L 44.3163,7.81416
 L 43.4667,11.6469 L 42.2862,15.3909 L 40.7838,19.0178 L 38.9711,22.5 L 36.8618,25.8109 L 34.8269,28.4629
 z
M 4.49998,14.2941 L 5.13029,14.0954 L 6.33926,13.5946 L 6.92548,13.2894 L 28.4629,34.8269 L 25.8109,36.8618
 L 22.5,38.9711 L 19.0178,40.7838 L 15.3909,42.2862 L 11.6469,43.4667 L 7.81416,44.3163 L 4.49998,44.7527
 z
M -7.81416,44.3163 L -11.6469,43.4667 L -15.3909,42.2862 L -19.0178,40.7838 L -22.5,38.9711 L -25.8109,36.8618
 L -28.4629,34.8269 L -6.92548,13.2894 L -6.33926,13.5946 L -5.13029,14.0954 L -4.5,14.2941 L -4.5,44.7527
 z
M -0.900955,16.4339 L -0.900955,15.5661 L -0.222519,15.0251 L 0.623489,15.2182 L 1,16 L 0.623489,16.7818
 L -0.222519,16.9749 z
M -0.900955,25.4339 L -0.900955,24.5661 L -0.222519,24.0251 L 0.623489,24.2182 L 1,25 L 0.623489,25.7818
 L -0.222519,25.9749 z
" stroke="black" fill="lightgray" stroke-width="0.5"/></svg>
