<?xml version="1.0" standalone="no"?>
<!DOCTYPE svg PUBLIC "-//W3C//DTD SVG 1.1//EN" "http://www.w3.org/Graphics/SVG/1.1/DTD/svg11.dtd">
<svg width="52" height="52" viewBox="-26 -26 52 52" xmlns="http://www.w3.org/2000/svg" version="1.1">
<title>OpenSCAD Model</title>
<path d="
M 0.999985,24.9563 L 2.17888,24.9049 L 4.3412,24.6202 L 6.47047,24.1481 L 8.55049,23.4923 L 8.63409,23.4577
 L 9.02588,24.4035 L 10.8736,23.6382 L 10.4819,22.6923 L 10.5654,22.6577 L 12.5,21.6506 L 14.3394,20.4788
 L 16.0697,19.1511 L 16.9397,18.3539 L 17.6777,19.0919 L 19.0919,17.6777 L 18.3539,16.9397 L 19.1511,16.0697
 L 20.4788,14.3394 L 21.6506,12.5 L 22.6577,10.5654 L 22.6923,10.4819 L 23.6382,10.8736 L 24.4035,9.02588
 L 23.4577,8.63409 L 23.4923,8.55049 L 24.1481,6.47047 L 24.6202,4.3412 L 24.9049,2.17888 L 24.9563,1
 L 26,1 L 26,-0.999985 L 24.9563,-0.999985 L 24.9049,-2.17888 L 24.6202,-4.3412 L 24.1481,-6.47047
 L 23.4923,-8.55049 L 23.4577,-8.63409 L 24.4035,-9.02588 L 23.6382,-10.8736 L 22.6923,-10.4819 L 22.6577,-10.5654
 L 21.6506,-12.5 L 20.4788,-14.3394 L 19.1511,-16.0697 L 18.3539,-16.9397 L 19.0919,-17.6777 L 17.6777,-19.0919
 L 16.9397,-18.3539 L 16.0697,-19.1511 L 14.3394,-20.4788 L 12.5,-21.6506 L 10.5654,-22.6577 L 10.4819,-22.6923
 L 10.8736,-23.6382 L 9.02588,-24.4035 L 8.63409,-23.4577 L 8.55049,-23.4923 L 6.47047,-24.1481 L 4.3412,-24.6202
 L 2.17888,-24.9049 L 1,-24.9563 L 1,-26 L -1,-26 L -1,-24.9563 L -2.17888,-24.9049
 L -4.3412,-24.6202 L -6.47047,-24.1481 L -8.55049,-23.4923 L -8.63409,-23.4577 L -9.02588,-24.4035 L -10.8736,-23.6382
 L -10.4819,-22.6923 L -10.5654,-22.6577 L -12.5,-21.6506 L -14.3394,-20.4788 L -16.0697,-19.1511 L -16.9397,-18.3539
 L -17.6777,-19.0919 L -19.0919,-17.6777 L -18.3539,-16.9397 L -19.1511,-16.0697 L -20.4788,-14.3394 L -21.6506,-12.5
 L -22.6577,-10.5654 L -22.6923,-10.4819 L -23.6382,-10.8736 L -24.4035,-9.02588 L -23.4577,-8.63409 L -23.4923,-8.55049
 L -24.1481,-6.47047 L -24.6202,-4.3412 L -24.9049,-2.17888 L -24.9563,-1 L -26,-1 L -26,0.999985
 L -24.9563,0.999985 L -24.9049,2.17888 L -24.6202,4.3412 L -24.1481,6.47047 L -23.4923,8.55049 L -23.4577,8.63409
 L -24.4035,9.02588 L -23.6382,10.8736 L -22.6923,10.4819 L -22.6577,10.5654 L -21.6506,12.5 L -20.4788,14.3394
 L -19.1511,16.0697 L -18.3539,16.9397 L -19.0919,17.6777 L -17.6777,19.0919 L -16.9397,18.3539 L -16.0697,19.1511
 L -14.3394,20.4788 L -12.5,21.6506 L -10.5654,22.6577 L -10.4819,22.6923 L -10.8736,23.6382 L -9.02588,24.4035
 L -8.63409,23.4577 L -8.55049,23.4923 L -6.47047,24.1481 L -4.3412,24.6202 L -2.17888,24.9049 L -1,24.9563
 L -1,26 L 0.999985,26 z
M 10.0272,-4.49998 L 9.91064,-4.77272 L 9.44293,-5.64189 L 8.89919,-6.46564 L 8.28378,-7.23732 L 7.60168,-7.95073
 L 6.85838,-8.60014 L 6.05986,-9.1803 L 5.21255,-9.68654 L 4.5,-10.0297 L 4.5,-19.4685 L 5.17638,-19.3185
 L 6.84039,-18.7938 L 8.45236,-18.1261 L 10,-17.3205 L 11.4715,-16.383 L 12.8557,-15.3209 L 14.1421,-14.1421
 L 15.3209,-12.8557 L 16.383,-11.4715 L 17.3205,-9.99998 L 18.1261,-8.45236 L 18.7938,-6.84039 L 19.3185,-5.17638
 L 19.4685,-4.49998 z
M -19.4685,-4.5 L -19.3185,-5.17638 L -18.7938,-6.84039 L -18.1261,-8.45236 L -17.3205,-10 L -16.383,-11.4715
 L -15.3209,-12.8557 L -14.1421,-14.1421 L -12.8557,-15.3209 L -11.4715,-16.383 L -9.99998,-17.3205 L -8.45236,-18.1261
 L -6.84039,-18.7938 L -5.17638,-19.3185 L -4.5,-19.4685 L -4.5,-10.0297 L -5.21255,-9.68654 L -6.05986,-9.1803
 L -6.85838,-8.60014 L -7.60168,-7.95073 L -8.28378,-7.23732 L -8.89919,-6.46564 L -9.44293,-5.64189 L -9.91064,-4.77272
 L -10.0272,-4.5 z
M -0.900955,-15.5661 L -0.900955,-16.4339 L -0.222519,-16.9749 L 0.623489,-16.7818 L 1,-16 L 0.623489,-15.2182
 L -0.222519,-15.0251 z
M -0.900955,-9.5661 L -0.900955,-10.4339 L -0.222519,-10.9749 L 0.623489,-10.7818 L 1,-10 L 0.623489,-9.21815
 L -0.222519,-9.02507 z
M -0.975449,4.90392 L -1.91341,4.61938 L -2.77785,4.15733 L -3.53552,3.53552 L -4.15733,2.77785 L -4.61938,1.91341
 L -4.90392,0.975449 L -5,-0 L -4.90392,-0.975449 L -4.61938,-1.91341 L -4.15733,-2.77785 L -3.53552,-3.53552
 L -2.77785,-4.15733 L -1.91341,-4.61938 L -0.975449,-4.90392 L 0,-5 L 0.975449,-4.90392 L 1.91341,-4.61938
 L 2.77785,-4.15733 L 3.53552,-3.53552 L 4.15733,-2.77785 L 4.61938,-1.91341 L 4.90392,-0.975449 L 5,-0
 L 4.90392,0.975449 L 4.61938,1.91341 L 4.15733,2.77785 L 3.53552,3.53552 L 2.77785,4.15733 L 1.91341,4.61938
 L 0.975449,4.90392 L 0,5 z
M -5.17638,19.3185 L -6.84039,18.7938 L -8.45236,18.1261 L -10,17.3205 L -11.4715,16.383 L -12.8557,15.3209
 L -14.1421,14.1421 L -15.3209,12.8557 L -16.383,11.4715 L -17.3205,10 L -18.1261,8.45236 L -18.7938,6.84039
 L -19.3185,5.17638 L -19.4685,4.49998 L -10.0272,4.49998 L -9.91064,4.77272 L -9.44293,5.64189 L -8.89919,6.46564
 L -8.28378,7.23732 L -7.60168,7.95073 L -6.85838,8.60014 L -6.05986,9.1803 L -5.21255,9.68654 L -4.5,10.0297
 L -4.5,19.4685 z
M 4.49998,10.0297 L 5.21255,9.68654 L 6.05986,9.1803 L 6.85838,8.60014 L 7.60168,7.95073 L 8.28378,7.23732
 L 8.89919,6.46564 L 9.44293,5.64189 L 9.91064,4.77272 L 10.0272,4.5 L 19.4685,4.5 L 19.3185,5.17638
 L 18.7938,6.84039 L 18.1261,8.45236 L 17.3205,9.99998 L 16.383,11.4715 L 15.3209,12.8557 L 14.1421,14.1421
 L 12.8557,15.3209 L 11.4715,16.383 L 9.99998,17.3205 L 8.45236,18.1261 L 6.84039,18.7938 L 5.17638,19.3185
 L 4.49998,19.4685 z
M -0.900955,10.4339 L -0.900955,9.5661 L -0.222519,9.02507 L 0.623489,9.21815 L 1,10 L 0.623489,10.7818
 L -0.222519,10.9749 z
M -0.900955,16.4339 L -0.900955,15.5661 L -0.222519,15.0251 L 0.623489,15.2182 L 1,16 L 0.623489,16.7818
 L -0.222519,16.9749 z
" stroke="black" fill="lightgray" stroke-width="0.5"/></svg>
