<?xml version="1.0" standalone="no"?>
<!DOCTYPE svg PUBLIC "-//W3C//DTD SVG 1.1//EN" "http://www.w3.org/Graphics/SVG/1.1/DTD/svg11.dtd">
<svg width="82" height="82" viewBox="-41 -41 82 82" xmlns="http://www.w3.org/2000/svg" version="1.1">
<title>OpenSCAD Model</title>
<path d="
M 4.49998,22.5384 L 5.95284,22.2163 L 7.37207,21.7688 L 16.6029,37.757 L 24.3971,33.257 L 15.1663,17.2688
 L 16.2634,16.2634 L 17.2688,15.1663 L 33.257,24.3971 L 37.757,16.6029 L 21.7688,7.37207 L 22.2163,5.95284
 L 22.5384,4.5 L 41,4.5 L 41,-4.49998 L 22.5384,-4.49998 L 22.2163,-5.95284 L 21.7688,-7.37207
 L 37.757,-16.6029 L 33.257,-24.3971 L 17.2688,-15.1663 L 16.2634,-16.2634 L 15.1663,-17.2688 L 24.3971,-33.257
 L 16.6029,-37.757 L 7.37207,-21.7688 L 5.95284,-22.2163 L 4.5,-22.5384 L 4.5,-41 L -4.5,-41
 L -4.5,-22.5384 L -5.95284,-22.2163 L -7.37207,-21.7688 L -16.6029,-37.757 L -24.3971,-33.257 L -15.1663,-17.2688
 L -16.2634,-16.2634 L -17.2688,-15.1663 L -33.257,-24.3971 L -37.757,-16.6029 L -21.7688,-7.37207 L -22.2163,-5.95284
 L -22.5384,-4.5 L -41,-4.5 L -41,4.49998 L -22.5384,4.49998 L -22.2163,5.95284 L -21.7688,7.37207
 L -37.757,16.6029 L -33.257,24.3971 L -17.2688,15.1663 L -16.2634,16.2634 L -15.1663,17.2688 L -24.3971,33.257
 L -16.6029,37.757 L -7.37207,21.7688 L -5.95284,22.2163 L -4.5,22.5384 L -4.5,41 L 4.49998,41
 z
M -0.900955,-24.5661 L -0.900955,-25.4339 L -0.222519,-25.9749 L 0.623489,-25.7818 L 1,-25 L 0.623489,-24.2182
 L -0.222519,-24.0251 z
M -0.900955,-15.5661 L -0.900955,-16.4339 L -0.222519,-16.9749 L 0.623489,-16.7818 L 1,-16 L 0.623489,-15.2182
 L -0.222519,-15.0251 z
M -0.975449,4.90392 L -1.91341,4.61938 L -2.77785,4.15733 L -3.53552,3.53552 L -4.15733,2.77785 L -4.61938,1.91341
 L -4.90392,0.975449 L -5,-0 L -4.90392,-0.975449 L -4.61938,-1.91341 L -4.15733,-2.77785 L -3.53552,-3.53552
 L -2.77785,-4.15733 L -1.91341,-4.61938 L -0.975449,-4.90392 L 0,-5 L 0.975449,-4.90392 L 1.91341,-4.61938
 L 2.77785,-4.15733 L 3.53552,-3.53552 L 4.15733,-2.77785 L 4.61938,-1.91341 L 4.90392,-0.975449 L 5,-0
 L 4.90392,0.975449 L 4.61938,1.91341 L 4.15733,2.77785 L 3.53552,3.53552 L 2.77785,4.15733 L 1.91341,4.61938
 L 0.975449,4.90392 L 0,5 z
M -0.900955,16.4339 L -0.900955,15.5661 L -0.222519,15.0251 L 0.623489,15.2182 L 1,16 L 0.623489,16.7818
 L -0.222519,16.9749 z
M -0.900955,25.4339 L -0.900955,24.5661 L -0.222519,24.0251 L 0.623489,24.2182 L 1,25 L 0.623489,25.7818
 L -0.222519,25.9749 z
" stroke="black" fill="lightgray" stroke-width="0.5"/></svg>
