<?xml version="1.0" standalone="no"?>
<!DOCTYPE svg PUBLIC "-//W3C//DTD SVG 1.1//EN" "http://www.w3.org/Graphics/SVG/1.1/DTD/svg11.dtd">
<svg width="62" height="62" viewBox="-31 -31 62 62" xmlns="http://www.w3.org/2000/svg" version="1.1">
<title>OpenSCAD Model</title>
<path d="
M 0.999985,29.9563 L 2.61467,29.8858 L 5.20944,29.5442 L 7.76456,28.9778 L 8.30827,28.8063 L 8.62846,29.7918
 L 10.5306,29.1737 L 10.2158,28.2049 L 10.2606,28.1908 L 12.6785,27.1892 L 15,25.9808 L 16.8047,24.831
 L 17.4123,25.6673 L 19.0303,24.4917 L 18.4164,23.6467 L 19.2836,22.9813 L 21.2132,21.2132 L 22.9813,19.2836
 L 23.6467,18.4164 L 24.4917,19.0303 L 25.6673,17.4123 L 24.831,16.8047 L 25.9808,15 L 27.1892,12.6785
 L 28.1908,10.2606 L 28.2049,10.2158 L 29.1737,10.5306 L 29.7918,8.62846 L 28.8063,8.30827 L 28.9778,7.76456
 L 29.5442,5.20944 L 29.8858,2.61467 L 29.9563,1 L 31,1 L 31,-0.999985 L 29.9563,-0.999985
 L 29.8858,-2.61467 L 29.5442,-5.20944 L 28.9778,-7.76456 L 28.8063,-8.30827 L 29.7918,-8.62846 L 29.1737,-10.5306
 L 28.2049,-10.2158 L 28.1908,-10.2606 L 27.1892,-12.6785 L 25.9808,-15 L 24.831,-16.8047 L 25.6673,-17.4123
 L 24.4917,-19.0303 L 23.6467,-18.4164 L 22.9813,-19.2836 L 21.2132,-21.2132 L 19.2836,-22.9813 L 18.4164,-23.6467
 L 19.0303,-24.4917 L 17.4123,-25.6673 L 16.8047,-24.831 L 15,-25.9808 L 12.6785,-27.1892 L 10.2606,-28.1908
 L 10.2158,-28.2049 L 10.5306,-29.1737 L 8.62846,-29.7918 L 8.30827,-28.8063 L 7.76456,-28.9778 L 5.20944,-29.5442
 L 2.61467,-29.8858 L 1,-29.9563 L 1,-31 L -1,-31 L -1,-29.9563 L -2.61467,-29.8858
 L -5.20944,-29.5442 L -7.76456,-28.9778 L -8.30827,-28.8063 L -8.62846,-29.7918 L -10.5306,-29.1737 L -10.2158,-28.2049
 L -10.2606,-28.1908 L -12.6785,-27.1892 L -15,-25.9808 L -16.8047,-24.831 L -17.4123,-25.6673 L -19.0303,-24.4917
 L -18.4164,-23.6467 L -19.2836,-22.9813 L -21.2132,-21.2132 L -22.9813,-19.2836 L -23.6467,-18.4164 L -24.4917,-19.0303
 L -25.6673,-17.4123 L -24.831,-16.8047 L -25.9808,-15 L -27.1892,-12.6785 L -28.1908,-10.2606 L -28.2049,-10.2158
 L -29.1737,-10.5306 L -29.7918,-8.62846 L -28.8063,-8.30827 L -28.9778,-7.76456 L -29.5442,-5.20944 L -29.8858,-2.61467
 L -29.9563,-1 L -31,-1 L -31,0.999985 L -29.9563,0.999985 L -29.8858,2.61467 L -29.5442,5.20944
 L -28.9778,7.76456 L -28.8063,8.30827 L -29.7918,8.62846 L -29.1737,10.5306 L -28.2049,10.2158 L -28.1908,10.2606
 L -27.1892,12.6785 L -25.9808,15 L -24.831,16.8047 L -25.6673,17.4123 L -24.4917,19.0303 L -23.6467,18.4164
 L -22.9813,19.2836 L -21.2132,21.2132 L -19.2836,22.9813 L -18.4164,23.6467 L -19.0303,24.4917 L -17.4123,25.6673
 L -16.8047,24.831 L -15,25.9808 L -12.6785,27.1892 L -10.2606,28.1908 L -10.2158,28.2049 L -10.5306,29.1737
 L -8.62846,29.7918 L -8.30827,28.8063 L -7.76456,28.9778 L -5.20944,29.5442 L -2.61467,29.8858 L -1,29.9563
 L -1,31 L 0.999985,31 z
M 10.0272,-4.49998 L 9.91064,-4.77272 L 9.44293,-5.64189 L 8.89919,-6.46564 L 8.28378,-7.23732 L 7.60168,-7.95073
 L 6.85838,-8.60014 L 6.05986,-9.1803 L 5.21255,-9.68654 L 4.5,-10.0297 L 4.5,-24.585 L 6.47047,-24.1481
 L 8.55049,-23.4923 L 10.5654,-22.6577 L 12.5,-21.6506 L 14.3394,-20.4788 L 16.0697,-19.1511 L 17.6777,-17.6777
 L 19.1511,-16.0697 L 20.4788,-14.3394 L 21.6506,-12.5 L 22.6577,-10.5654 L 23.4923,-8.55049 L 24.1481,-6.47047
 L 24.585,-4.49998 z
M -24.585,-4.5 L -24.1481,-6.47047 L -23.4923,-8.55049 L -22.6577,-10.5654 L -21.6506,-12.5 L -20.4788,-14.3394
 L -19.1511,-16.0697 L -17.6777,-17.6777 L -16.0697,-19.1511 L -14.3394,-20.4788 L -12.5,-21.6506 L -10.5654,-22.6577
 L -8.55049,-23.4923 L -6.47047,-24.1481 L -4.5,-24.585 L -4.5,-10.0297 L -5.21255,-9.68654 L -6.05986,-9.1803
 L -6.85838,-8.60014 L -7.60168,-7.95073 L -8.28378,-7.23732 L -8.89919,-6.46564 L -9.44293,-5.64189 L -9.91064,-4.77272
 L -10.0272,-4.5 z
M -0.900955,-15.5661 L -0.900955,-16.4339 L -0.222519,-16.9749 L 0.623489,-16.7818 L 1,-16 L 0.623489,-15.2182
 L -0.222519,-15.0251 z
M -0.900955,-9.5661 L -0.900955,-10.4339 L -0.222519,-10.9749 L 0.623489,-10.7818 L 1,-10 L 0.623489,-9.21815
 L -0.222519,-9.02507 z
M -0.975449,4.90392 L -1.91341,4.61938 L -2.77785,4.15733 L -3.53552,3.53552 L -4.15733,2.77785 L -4.61938,1.91341
 L -4.90392,0.975449 L -5,-0 L -4.90392,-0.975449 L -4.61938,-1.91341 L -4.15733,-2.77785 L -3.53552,-3.53552
 L -2.77785,-4.15733 L -1.91341,-4.61938 L -0.975449,-4.90392 L 0,-5 L 0.975449,-4.90392 L 1.91341,-4.61938
 L 2.77785,-4.15733 L 3.53552,-3.53552 L 4.15733,-2.77785 L 4.61938,-1.91341 L 4.90392,-0.975449 L 5,-0
 L 4.90392,0.975449 L 4.61938,1.91341 L 4.15733,2.77785 L 3.53552,3.53552 L 2.77785,4.15733 L 1.91341,4.61938
 L 0.975449,4.90392 L 0,5 z
M -6.47047,24.1481 L -8.55049,23.4923 L -10.5654,22.6577 L -12.5,21.6506 L -14.3394,20.4788 L -16.0697,19.1511
 L -17.6777,17.6777 L -19.1511,16.0697 L -20.4788,14.3394 L -21.6506,12.5 L -22.6577,10.5654 L -23.4923,8.55049
 L -24.1481,6.47047 L -24.585,4.49998 L -10.0272,4.49998 L -9.91064,4.77272 L -9.44293,5.64189 L -8.89919,6.46564
 L -8.28378,7.23732 L -7.60168,7.95073 L -6.85838,8.60014 L -6.05986,9.1803 L -5.21255,9.68654 L -4.5,10.0297
 L -4.5,24.585 z
M 4.49998,10.0297 L 5.21255,9.68654 L 6.05986,9.1803 L 6.85838,8.60014 L 7.60168,7.95073 L 8.28378,7.23732
 L 8.89919,6.46564 L 9.44293,5.64189 L 9.91064,4.77272 L 10.0272,4.5 L 24.585,4.5 L 24.1481,6.47047
 L 23.4923,8.55049 L 22.6577,10.5654 L 21.6506,12.5 L 20.4788,14.3394 L 19.1511,16.0697 L 17.6777,17.6777
 L 16.0697,19.1511 L 14.3394,20.4788 L 12.5,21.6506 L 10.5654,22.6577 L 8.55049,23.4923 L 6.47047,24.1481
 L 4.49998,24.585 z
M -0.900955,10.4339 L -0.900955,9.5661 L -0.222519,9.02507 L 0.623489,9.21815 L 1,10 L 0.623489,10.7818
 L -0.222519,10.9749 z
M -0.900955,16.4339 L -0.900955,15.5661 L -0.222519,15.0251 L 0.623489,15.2182 L 1,16 L 0.623489,16.7818
 L -0.222519,16.9749 z
" stroke="black" fill="lightgray" stroke-width="0.5"/></svg>
