<?xml version="1.0" standalone="no"?>
<!DOCTYPE svg PUBLIC "-//W3C//DTD SVG 1.1//EN" "http://www.w3.org/Graphics/SVG/1.1/DTD/svg11.dtd">
<svg width="40" height="40" viewBox="-20 -20 40 40" xmlns="http://www.w3.org/2000/svg" version="1.1">
<title>OpenSCAD Model</title>
<path d="
M 1.7431,19.9239 L 3.47296,19.6962 L 5.17638,19.3185 L 6.84039,18.7938 L 8.45236,18.1261 L 9.99998,17.3205
 L 11.4715,16.383 L 12.8557,15.3209 L 14.1421,14.1421 L 15.3209,12.8557 L 16.383,11.4715 L 17.3205,9.99998
 L 18.1261,8.45236 L 18.7938,6.84039 L 19.3185,5.17638 L 19.6962,3.47296 L 19.9239,1.7431 L 20,-0
 L 19.9239,-1.7431 L 19.6962,-3.47296 L 19.3185,-5.17638 L 18.7938,-6.84039 L 18.1261,-8.45236 L 17.3205,-9.99998
 L 16.383,-11.4715 L 15.3209,-12.8557 L 14.1421,-14.1421 L 12.8557,-15.3209 L 11.4715,-16.383 L 10,-17.3205
 L 8.45236,-18.1261 L 6.84039,-18.7938 L 5.17638,-19.3185 L 3.47296,-19.6962 L 1.7431,-19.9239 L 0,-20
 L -1.7431,-19.9239 L -3.47296,-19.6962 L -5.17638,-19.3185 L -6.84039,-18.7938 L -8.45236,-18.1261 L -9.99998,-17.3205
 L -11.4715,-16.383 L -12.8557,-15.3209 L -14.1421,-14.1421 L -15.3209,-12.8557 L -16.383,-11.4715 L -17.3205,-10
 L -18.1261,-8.45236 L -18.7938,-6.84039 L -19.3185,-5.17638 L -19.6962,-3.47296 L -19.9239,-1.7431 L -20,-0
 L -19.9239,1.7431 L -19.6962,3.47296 L -19.3185,5.17638 L -18.7938,6.84039 L -18.1261,8.45236 L -17.3205,10
 L -16.383,11.4715 L -15.3209,12.8557 L -14.1421,14.1421 L -12.8557,15.3209 L -11.4715,16.383 L -10,17.3205
 L -8.45236,18.1261 L -6.84039,18.7938 L -5.17638,19.3185 L -3.47296,19.6962 L -1.7431,19.9239 L 0,20
 z
M -0.900955,-15.5661 L -0.900955,-16.4339 L -0.222519,-16.9749 L 0.623489,-16.7818 L 1,-16 L 0.623489,-15.2182
 L -0.222519,-15.0251 z
M -14.2941,-4.5 L -14.0954,-5.13029 L -13.5946,-6.33926 L -12.9904,-7.5 L -12.2873,-8.60364 L -11.4907,-9.6418
 L -10.6066,-10.6066 L -9.6418,-11.4907 L -8.60364,-12.2873 L -7.49998,-12.9904 L -6.33926,-13.5946 L -5.13029,-14.0954
 L -4.5,-14.2941 L -4.5,-10.0297 L -5.21255,-9.68654 L -6.05986,-9.1803 L -6.85838,-8.60014 L -7.60168,-7.95073
 L -8.28378,-7.23732 L -8.89919,-6.46564 L -9.44293,-5.64189 L -9.91064,-4.77272 L -10.0272,-4.5 z
M 10.0272,-4.49998 L 9.91064,-4.77272 L 9.44293,-5.64189 L 8.89919,-6.46564 L 8.28378,-7.23732 L 7.60168,-7.95073
 L 6.85838,-8.60014 L 6.05986,-9.1803 L 5.21255,-9.68654 L 4.5,-10.0297 L 4.5,-14.2941 L 5.13029,-14.0954
 L 6.33926,-13.5946 L 7.5,-12.9904 L 8.60364,-12.2873 L 9.6418,-11.4907 L 10.6066,-10.6066 L 11.4907,-9.6418
 L 12.2873,-8.60364 L 12.9904,-7.49998 L 13.5946,-6.33926 L 14.0954,-5.13029 L 14.2941,-4.49998 z
M -0.900955,-9.5661 L -0.900955,-10.4339 L -0.222519,-10.9749 L 0.623489,-10.7818 L 1,-10 L 0.623489,-9.21815
 L -0.222519,-9.02507 z
M -0.975449,4.90392 L -1.91341,4.61938 L -2.77785,4.15733 L -3.53552,3.53552 L -4.15733,2.77785 L -4.61938,1.91341
 L -4.90392,0.975449 L -5,-0 L -4.90392,-0.975449 L -4.61938,-1.91341 L -4.15733,-2.77785 L -3.53552,-3.53552
 L -2.77785,-4.15733 L -1.91341,-4.61938 L -0.975449,-4.90392 L 0,-5 L 0.975449,-4.90392 L 1.91341,-4.61938
 L 2.77785,-4.15733 L 3.53552,-3.53552 L 4.15733,-2.77785 L 4.61938,-1.91341 L 4.90392,-0.975449 L 5,-0
 L 4.90392,0.975449 L 4.61938,1.91341 L 4.15733,2.77785 L 3.53552,3.53552 L 2.77785,4.15733 L 1.91341,4.61938
 L 0.975449,4.90392 L 0,5 z
M -5.13029,14.0954 L -6.33926,13.5946 L -7.5,12.9904 L -8.60364,12.2873 L -9.6418,11.4907 L -10.6066,10.6066
 L -11.4907,9.6418 L -12.2873,8.60364 L -12.9904,7.5 L -13.5946,6.33926 L -14.0954,5.13029 L -14.2941,4.49998
 L -10.0272,4.49998 L -9.91064,4.77272 L -9.44293,5.64189 L -8.89919,6.46564 L -8.28378,7.23732 L -7.60168,7.95073
 L -6.85838,8.60014 L -6.05986,9.1803 L -5.21255,9.68654 L -4.5,10.0297 L -4.5,14.2941 z
M 4.49998,10.0297 L 5.21255,9.68654 L 6.05986,9.1803 L 6.85838,8.60014 L 7.60168,7.95073 L 8.28378,7.23732
 L 8.89919,6.46564 L 9.44293,5.64189 L 9.91064,4.77272 L 10.0272,4.5 L 14.2941,4.5 L 14.0954,5.13029
 L 13.5946,6.33926 L 12.9904,7.49998 L 12.2873,8.60364 L 11.4907,9.6418 L 10.6066,10.6066 L 9.6418,11.4907
 L 8.60364,12.2873 L 7.49998,12.9904 L 6.33926,13.5946 L 5.13029,14.0954 L 4.49998,14.2941 z
M -0.900955,10.4339 L -0.900955,9.5661 L -0.222519,9.02507 L 0.623489,9.21815 L 1,10 L 0.623489,10.7818
 L -0.222519,10.9749 z
M -0.900955,16.4339 L -0.900955,15.5661 L -0.222519,15.0251 L 0.623489,15.2182 L 1,16 L 0.623489,16.7818
 L -0.222519,16.9749 z
" stroke="black" fill="lightgray" stroke-width="0.5"/></svg>
